<svg width="420" height="128" viewBox="0 0 420 128" fill="none" xmlns="http://www.w3.org/2000/svg">
<rect width="420" height="128" fill="#1A2A37"/>
<path d="M106.681 81.444C105.258 86.0033 103.015 90.5603 99.954 95.115C95.25 102.26 90.5647 105.832 85.898 105.832C84.1107 105.832 81.558 105.249 78.24 104.082C75.104 102.915 72.3507 102.332 69.98 102.332C67.754 102.332 65.1663 102.934 62.217 104.138C59.263 105.379 56.8573 106 55 106C49.4607 106 43.9727 101.28 38.536 91.839C33.1787 82.3237 30.5 73.1537 30.5 64.329C30.5 56.0177 32.5603 49.1997 36.681 43.875C40.7643 38.625 45.942 36 52.214 36C54.8413 36 58.0683 36.546 61.895 37.638C65.689 38.73 68.2043 39.276 69.441 39.276C71.0837 39.276 73.69 38.6553 77.26 37.414C80.9793 36.1727 84.134 35.552 86.724 35.552C91.064 35.552 94.9467 36.7373 98.372 39.108C100.267 40.4193 102.164 42.2417 104.063 44.575C101.184 47.0157 99.1047 49.167 97.826 51.029C95.4553 54.4543 94.27 58.2273 94.27 62.348C94.27 66.87 95.5277 70.9347 98.043 74.542C100.558 78.1493 103.438 80.4453 106.681 81.43V81.444ZM86.115 17.296C86.115 19.522 85.5853 22 84.526 24.73C83.434 27.4647 81.7377 29.98 79.437 32.276C77.4677 34.2453 75.4983 35.559 73.529 36.217C72.1803 36.6183 70.2833 36.9287 67.838 37.148C67.9453 31.716 69.3663 27.0307 72.101 23.092C74.7983 19.1907 79.3553 16.4933 85.772 15C85.8093 15.1073 85.856 15.308 85.912 15.602C85.968 15.896 86.0147 16.0967 86.052 16.204C86.052 16.3487 86.0613 16.5307 86.08 16.75C86.0987 16.9693 86.108 17.1513 86.108 17.296H86.115Z" fill="white"/>
<path d="M154.888 27.432C156.6 27.432 158.136 27.776 159.496 28.464C160.872 29.152 161.952 30.16 162.736 31.488C163.52 32.8 163.912 34.368 163.912 36.192C163.912 38.032 163.52 39.616 162.736 40.944C161.968 42.256 160.896 43.264 159.52 43.968C158.16 44.656 156.616 45 154.888 45H150.088V27.432H154.888ZM154.6 43.104C156.808 43.104 158.536 42.504 159.784 41.304C161.032 40.104 161.656 38.4 161.656 36.192C161.656 34.016 161.024 32.328 159.76 31.128C158.512 29.912 156.792 29.304 154.6 29.304H152.224V43.104H154.6ZM166.261 38.76C166.261 37.512 166.533 36.392 167.077 35.4C167.637 34.408 168.373 33.64 169.285 33.096C170.197 32.536 171.181 32.256 172.237 32.256C173.293 32.256 174.277 32.528 175.189 33.072C176.101 33.616 176.829 34.384 177.373 35.376C177.917 36.368 178.189 37.496 178.189 38.76C178.189 40.024 177.917 41.152 177.373 42.144C176.829 43.12 176.101 43.888 175.189 44.448C174.277 44.992 173.293 45.264 172.237 45.264C171.181 45.264 170.189 44.992 169.261 44.448C168.349 43.888 167.621 43.12 167.077 42.144C166.533 41.152 166.261 40.024 166.261 38.76ZM168.421 38.76C168.421 39.704 168.589 40.52 168.925 41.208C169.261 41.896 169.717 42.424 170.293 42.792C170.869 43.16 171.517 43.344 172.237 43.344C172.957 43.344 173.605 43.16 174.181 42.792C174.757 42.424 175.205 41.896 175.525 41.208C175.861 40.52 176.029 39.704 176.029 38.76C176.029 37.816 175.861 37 175.525 36.312C175.205 35.624 174.757 35.096 174.181 34.728C173.605 34.36 172.957 34.176 172.237 34.176C171.517 34.176 170.869 34.36 170.293 34.728C169.717 35.096 169.261 35.624 168.925 36.312C168.589 37 168.421 37.816 168.421 38.76ZM189.138 32.544L192.402 41.904L195.45 32.544H197.37L192.954 45H191.61L188.298 35.88L185.13 45H183.738L179.154 32.544H181.29L184.554 41.904L187.554 32.544H189.138ZM205.489 32.256C206.817 32.256 207.881 32.696 208.681 33.576C209.481 34.456 209.881 35.704 209.881 37.32V45H207.841V37.896C207.841 36.712 207.601 35.8 207.121 35.16C206.657 34.52 205.961 34.2 205.033 34.2C204.425 34.2 203.849 34.344 203.305 34.632C202.777 34.904 202.345 35.32 202.009 35.88C201.673 36.424 201.505 37.104 201.505 37.92V45H199.465V32.544H201.265C201.297 33.344 201.345 34.032 201.409 34.608C201.825 33.84 202.385 33.256 203.089 32.856C203.809 32.456 204.609 32.256 205.489 32.256ZM215.427 45H213.387V26.736H215.427V45ZM218.409 38.76C218.409 37.512 218.681 36.392 219.225 35.4C219.785 34.408 220.521 33.64 221.433 33.096C222.345 32.536 223.329 32.256 224.385 32.256C225.441 32.256 226.425 32.528 227.337 33.072C228.249 33.616 228.977 34.384 229.521 35.376C230.065 36.368 230.337 37.496 230.337 38.76C230.337 40.024 230.065 41.152 229.521 42.144C228.977 43.12 228.249 43.888 227.337 44.448C226.425 44.992 225.441 45.264 224.385 45.264C223.329 45.264 222.337 44.992 221.409 44.448C220.497 43.888 219.769 43.12 219.225 42.144C218.681 41.152 218.409 40.024 218.409 38.76ZM220.569 38.76C220.569 39.704 220.737 40.52 221.073 41.208C221.409 41.896 221.865 42.424 222.441 42.792C223.017 43.16 223.665 43.344 224.385 43.344C225.105 43.344 225.753 43.16 226.329 42.792C226.905 42.424 227.353 41.896 227.673 41.208C228.009 40.52 228.177 39.704 228.177 38.76C228.177 37.816 228.009 37 227.673 36.312C227.353 35.624 226.905 35.096 226.329 34.728C225.753 34.36 225.105 34.176 224.385 34.176C223.665 34.176 223.017 34.36 222.441 34.728C221.865 35.096 221.409 35.624 221.073 36.312C220.737 37 220.569 37.816 220.569 38.76ZM237.851 32.256C239.259 32.256 240.411 32.688 241.307 33.552C242.203 34.4 242.651 35.616 242.651 37.2V45H240.851C240.803 44.184 240.771 43.656 240.755 43.416C240.371 44.024 239.851 44.488 239.195 44.808C238.555 45.112 237.819 45.264 236.987 45.264C236.187 45.264 235.435 45.12 234.731 44.832C234.043 44.528 233.491 44.088 233.075 43.512C232.659 42.92 232.451 42.216 232.451 41.4C232.451 40.168 232.947 39.2 233.939 38.496C234.947 37.776 236.243 37.416 237.827 37.416C238.723 37.416 239.651 37.536 240.611 37.776V37.56C240.611 36.392 240.371 35.528 239.891 34.968C239.427 34.392 238.715 34.104 237.755 34.104C236.987 34.104 236.347 34.264 235.835 34.584C235.323 34.904 234.891 35.376 234.539 36L232.979 35.112C233.363 34.248 233.987 33.56 234.851 33.048C235.731 32.52 236.731 32.256 237.851 32.256ZM240.611 39.48C239.603 39.224 238.683 39.096 237.851 39.096C236.811 39.096 236.003 39.296 235.427 39.696C234.867 40.096 234.587 40.656 234.587 41.376C234.587 42.048 234.827 42.576 235.307 42.96C235.787 43.328 236.411 43.512 237.179 43.512C238.123 43.512 238.931 43.24 239.603 42.696C240.275 42.136 240.611 41.368 240.611 40.392V39.48ZM254.985 26.736H257.025V45H255.225C255.193 44.168 255.145 43.464 255.081 42.888C254.633 43.688 254.033 44.288 253.281 44.688C252.545 45.072 251.761 45.264 250.929 45.264C249.969 45.264 249.065 45.008 248.217 44.496C247.385 43.984 246.713 43.24 246.201 42.264C245.689 41.272 245.433 40.104 245.433 38.76C245.433 37.432 245.689 36.28 246.201 35.304C246.713 34.312 247.385 33.56 248.217 33.048C249.065 32.52 249.969 32.256 250.929 32.256C251.729 32.256 252.489 32.44 253.209 32.808C253.929 33.176 254.521 33.728 254.985 34.464V26.736ZM251.169 43.344C252.209 43.344 253.105 42.976 253.857 42.24C254.609 41.504 254.985 40.344 254.985 38.76C254.985 37.192 254.609 36.04 253.857 35.304C253.105 34.568 252.209 34.2 251.169 34.2C250.081 34.2 249.209 34.6 248.553 35.4C247.897 36.2 247.569 37.32 247.569 38.76C247.569 40.216 247.897 41.344 248.553 42.144C249.209 42.944 250.081 43.344 251.169 43.344Z" fill="white" fill-opacity="0.8"/>
<path d="M181.792 65.864H185.296V101H181.12V74.216L170.032 91.928H167.488L156.304 74.12V101H152.176V65.864H155.92L168.88 86.744L181.792 65.864ZM202.78 75.512C205.596 75.512 207.9 76.376 209.692 78.104C211.484 79.8 212.38 82.232 212.38 85.4V101H208.78C208.684 99.368 208.62 98.312 208.588 97.832C207.82 99.048 206.78 99.976 205.468 100.616C204.188 101.224 202.716 101.528 201.052 101.528C199.452 101.528 197.948 101.24 196.54 100.664C195.164 100.056 194.06 99.176 193.228 98.024C192.396 96.84 191.98 95.432 191.98 93.8C191.98 91.336 192.972 89.4 194.956 87.992C196.972 86.552 199.564 85.832 202.732 85.832C204.524 85.832 206.38 86.072 208.3 86.552V86.12C208.3 83.784 207.82 82.056 206.86 80.936C205.932 79.784 204.508 79.208 202.588 79.208C201.052 79.208 199.772 79.528 198.748 80.168C197.724 80.808 196.86 81.752 196.156 83L193.036 81.224C193.804 79.496 195.052 78.12 196.78 77.096C198.54 76.04 200.54 75.512 202.78 75.512ZM208.3 89.96C206.284 89.448 204.444 89.192 202.78 89.192C200.7 89.192 199.084 89.592 197.932 90.392C196.812 91.192 196.252 92.312 196.252 93.752C196.252 95.096 196.732 96.152 197.692 96.92C198.652 97.656 199.9 98.024 201.436 98.024C203.324 98.024 204.94 97.48 206.284 96.392C207.628 95.272 208.3 93.736 208.3 91.784V89.96ZM229.848 97.688C232.28 97.688 234.184 96.6 235.56 94.424L238.776 96.296C237.88 98.056 236.664 99.368 235.128 100.232C233.624 101.096 231.896 101.528 229.944 101.528C227.704 101.528 225.672 100.984 223.848 99.896C222.024 98.808 220.584 97.288 219.528 95.336C218.472 93.352 217.944 91.08 217.944 88.52C217.944 85.96 218.472 83.704 219.528 81.752C220.584 79.768 222.024 78.232 223.848 77.144C225.672 76.056 227.704 75.512 229.944 75.512C231.896 75.512 233.624 75.944 235.128 76.808C236.664 77.672 237.88 78.984 238.776 80.744L235.56 82.616C234.184 80.44 232.28 79.352 229.848 79.352C227.608 79.352 225.784 80.168 224.376 81.8C222.968 83.432 222.264 85.672 222.264 88.52C222.264 91.368 222.968 93.608 224.376 95.24C225.784 96.872 227.608 97.688 229.848 97.688Z" fill="white"/>
</svg>
