<svg width="420" height="128" viewBox="0 0 420 128" fill="none" xmlns="http://www.w3.org/2000/svg">
<rect width="420" height="128" fill="#1A2A37"/>
<path d="M111.634 24.7034V58.6507C111.634 60.3326 110.278 61.6998 108.596 61.7131L68.5213 62.0311C66.8204 62.0446 65.4345 60.6695 65.4345 58.9687V30.4284C65.4345 28.9043 66.5551 27.6122 68.0639 27.3967L108.139 21.6718C109.984 21.4081 111.634 22.8397 111.634 24.7034ZM61.2179 31.8795V58.975C61.2179 60.6569 59.8615 62.0241 58.1797 62.0374L29.4714 62.2653C27.7706 62.2788 26.3846 60.9037 26.3846 59.2029V35.9808C26.3846 34.4567 27.5053 33.1646 29.0141 32.9491L57.7223 28.848C59.5672 28.5843 61.2179 30.0159 61.2179 31.8795ZM111.634 69.5059V103.271C111.634 105.13 109.992 106.561 108.151 106.305L68.0757 100.739C66.5616 100.529 65.4345 99.2341 65.4345 97.7055V69.3467C65.4345 67.6506 66.813 66.2775 68.5091 66.2842L108.584 66.4433C110.271 66.4502 111.634 67.8193 111.634 69.5059ZM61.0345 69.1352V96.1446C61.0345 97.9955 59.4054 99.4234 57.5704 99.1807L29.0455 95.4075C27.5225 95.206 26.3845 93.9075 26.3845 92.3714V68.9843C26.3845 67.2866 27.7655 65.9129 29.4632 65.9218L57.9881 66.0727C59.6732 66.0817 61.0345 67.4502 61.0345 69.1352Z" fill="white"/>
<path d="M154.888 27.432C156.6 27.432 158.136 27.776 159.496 28.464C160.872 29.152 161.952 30.16 162.736 31.488C163.52 32.8 163.912 34.368 163.912 36.192C163.912 38.032 163.52 39.616 162.736 40.944C161.968 42.256 160.896 43.264 159.52 43.968C158.16 44.656 156.616 45 154.888 45H150.088V27.432H154.888ZM154.6 43.104C156.808 43.104 158.536 42.504 159.784 41.304C161.032 40.104 161.656 38.4 161.656 36.192C161.656 34.016 161.024 32.328 159.76 31.128C158.512 29.912 156.792 29.304 154.6 29.304H152.224V43.104H154.6ZM166.261 38.76C166.261 37.512 166.533 36.392 167.077 35.4C167.637 34.408 168.373 33.64 169.285 33.096C170.197 32.536 171.181 32.256 172.237 32.256C173.293 32.256 174.277 32.528 175.189 33.072C176.101 33.616 176.829 34.384 177.373 35.376C177.917 36.368 178.189 37.496 178.189 38.76C178.189 40.024 177.917 41.152 177.373 42.144C176.829 43.12 176.101 43.888 175.189 44.448C174.277 44.992 173.293 45.264 172.237 45.264C171.181 45.264 170.189 44.992 169.261 44.448C168.349 43.888 167.621 43.12 167.077 42.144C166.533 41.152 166.261 40.024 166.261 38.76ZM168.421 38.76C168.421 39.704 168.589 40.52 168.925 41.208C169.261 41.896 169.717 42.424 170.293 42.792C170.869 43.16 171.517 43.344 172.237 43.344C172.957 43.344 173.605 43.16 174.181 42.792C174.757 42.424 175.205 41.896 175.525 41.208C175.861 40.52 176.029 39.704 176.029 38.76C176.029 37.816 175.861 37 175.525 36.312C175.205 35.624 174.757 35.096 174.181 34.728C173.605 34.36 172.957 34.176 172.237 34.176C171.517 34.176 170.869 34.36 170.293 34.728C169.717 35.096 169.261 35.624 168.925 36.312C168.589 37 168.421 37.816 168.421 38.76ZM189.138 32.544L192.402 41.904L195.45 32.544H197.37L192.954 45H191.61L188.298 35.88L185.13 45H183.738L179.154 32.544H181.29L184.554 41.904L187.554 32.544H189.138ZM205.489 32.256C206.817 32.256 207.881 32.696 208.681 33.576C209.481 34.456 209.881 35.704 209.881 37.32V45H207.841V37.896C207.841 36.712 207.601 35.8 207.121 35.16C206.657 34.52 205.961 34.2 205.033 34.2C204.425 34.2 203.849 34.344 203.305 34.632C202.777 34.904 202.345 35.32 202.009 35.88C201.673 36.424 201.505 37.104 201.505 37.92V45H199.465V32.544H201.265C201.297 33.344 201.345 34.032 201.409 34.608C201.825 33.84 202.385 33.256 203.089 32.856C203.809 32.456 204.609 32.256 205.489 32.256ZM215.427 45H213.387V26.736H215.427V45ZM218.409 38.76C218.409 37.512 218.681 36.392 219.225 35.4C219.785 34.408 220.521 33.64 221.433 33.096C222.345 32.536 223.329 32.256 224.385 32.256C225.441 32.256 226.425 32.528 227.337 33.072C228.249 33.616 228.977 34.384 229.521 35.376C230.065 36.368 230.337 37.496 230.337 38.76C230.337 40.024 230.065 41.152 229.521 42.144C228.977 43.12 228.249 43.888 227.337 44.448C226.425 44.992 225.441 45.264 224.385 45.264C223.329 45.264 222.337 44.992 221.409 44.448C220.497 43.888 219.769 43.12 219.225 42.144C218.681 41.152 218.409 40.024 218.409 38.76ZM220.569 38.76C220.569 39.704 220.737 40.52 221.073 41.208C221.409 41.896 221.865 42.424 222.441 42.792C223.017 43.16 223.665 43.344 224.385 43.344C225.105 43.344 225.753 43.16 226.329 42.792C226.905 42.424 227.353 41.896 227.673 41.208C228.009 40.52 228.177 39.704 228.177 38.76C228.177 37.816 228.009 37 227.673 36.312C227.353 35.624 226.905 35.096 226.329 34.728C225.753 34.36 225.105 34.176 224.385 34.176C223.665 34.176 223.017 34.36 222.441 34.728C221.865 35.096 221.409 35.624 221.073 36.312C220.737 37 220.569 37.816 220.569 38.76ZM237.851 32.256C239.259 32.256 240.411 32.688 241.307 33.552C242.203 34.4 242.651 35.616 242.651 37.2V45H240.851C240.803 44.184 240.771 43.656 240.755 43.416C240.371 44.024 239.851 44.488 239.195 44.808C238.555 45.112 237.819 45.264 236.987 45.264C236.187 45.264 235.435 45.12 234.731 44.832C234.043 44.528 233.491 44.088 233.075 43.512C232.659 42.92 232.451 42.216 232.451 41.4C232.451 40.168 232.947 39.2 233.939 38.496C234.947 37.776 236.243 37.416 237.827 37.416C238.723 37.416 239.651 37.536 240.611 37.776V37.56C240.611 36.392 240.371 35.528 239.891 34.968C239.427 34.392 238.715 34.104 237.755 34.104C236.987 34.104 236.347 34.264 235.835 34.584C235.323 34.904 234.891 35.376 234.539 36L232.979 35.112C233.363 34.248 233.987 33.56 234.851 33.048C235.731 32.52 236.731 32.256 237.851 32.256ZM240.611 39.48C239.603 39.224 238.683 39.096 237.851 39.096C236.811 39.096 236.003 39.296 235.427 39.696C234.867 40.096 234.587 40.656 234.587 41.376C234.587 42.048 234.827 42.576 235.307 42.96C235.787 43.328 236.411 43.512 237.179 43.512C238.123 43.512 238.931 43.24 239.603 42.696C240.275 42.136 240.611 41.368 240.611 40.392V39.48ZM254.985 26.736H257.025V45H255.225C255.193 44.168 255.145 43.464 255.081 42.888C254.633 43.688 254.033 44.288 253.281 44.688C252.545 45.072 251.761 45.264 250.929 45.264C249.969 45.264 249.065 45.008 248.217 44.496C247.385 43.984 246.713 43.24 246.201 42.264C245.689 41.272 245.433 40.104 245.433 38.76C245.433 37.432 245.689 36.28 246.201 35.304C246.713 34.312 247.385 33.56 248.217 33.048C249.065 32.52 249.969 32.256 250.929 32.256C251.729 32.256 252.489 32.44 253.209 32.808C253.929 33.176 254.521 33.728 254.985 34.464V26.736ZM251.169 43.344C252.209 43.344 253.105 42.976 253.857 42.24C254.609 41.504 254.985 40.344 254.985 38.76C254.985 37.192 254.609 36.04 253.857 35.304C253.105 34.568 252.209 34.2 251.169 34.2C250.081 34.2 249.209 34.6 248.553 35.4C247.897 36.2 247.569 37.32 247.569 38.76C247.569 40.216 247.897 41.344 248.553 42.144C249.209 42.944 250.081 43.344 251.169 43.344Z" fill="white" fill-opacity="0.8"/>
<path d="M173.2 65.816L181.84 93.944L189.808 65.864H193.936L183.328 101H179.92L171.28 73.784L163.024 101H159.664L148.432 65.864H152.944L161.584 93.944L169.6 65.816H173.2ZM200.119 71.624C199.383 71.624 198.743 71.352 198.199 70.808C197.687 70.232 197.431 69.576 197.431 68.84C197.431 68.104 197.687 67.464 198.199 66.92C198.743 66.344 199.383 66.056 200.119 66.056C200.887 66.056 201.527 66.328 202.039 66.872C202.583 67.416 202.855 68.072 202.855 68.84C202.855 69.576 202.583 70.232 202.039 70.808C201.495 71.352 200.855 71.624 200.119 71.624ZM202.135 101H198.055V76.088H202.135V101ZM221.682 75.512C224.338 75.512 226.466 76.392 228.066 78.152C229.666 79.912 230.466 82.408 230.466 85.64V101H226.386V86.792C226.386 84.424 225.906 82.6 224.946 81.32C224.018 80.04 222.626 79.4 220.77 79.4C219.554 79.4 218.402 79.688 217.314 80.264C216.258 80.808 215.394 81.64 214.722 82.76C214.05 83.848 213.714 85.208 213.714 86.84V101H209.634V76.088H213.234C213.298 77.688 213.394 79.064 213.522 80.216C214.354 78.68 215.474 77.512 216.882 76.712C218.322 75.912 219.922 75.512 221.682 75.512ZM255.141 64.472H259.221V101H255.621C255.557 99.336 255.461 97.928 255.333 96.776C254.437 98.376 253.237 99.576 251.733 100.376C250.261 101.144 248.693 101.528 247.029 101.528C245.109 101.528 243.301 101.016 241.605 99.992C239.941 98.968 238.597 97.48 237.573 95.528C236.549 93.544 236.037 91.208 236.037 88.52C236.037 85.864 236.549 83.56 237.573 81.608C238.597 79.624 239.941 78.12 241.605 77.096C243.301 76.04 245.109 75.512 247.029 75.512C248.629 75.512 250.149 75.88 251.589 76.616C253.029 77.352 254.213 78.456 255.141 79.928V64.472ZM247.509 97.688C249.589 97.688 251.381 96.952 252.885 95.48C254.389 94.008 255.141 91.688 255.141 88.52C255.141 85.384 254.389 83.08 252.885 81.608C251.381 80.136 249.589 79.4 247.509 79.4C245.333 79.4 243.589 80.2 242.277 81.8C240.965 83.4 240.309 85.64 240.309 88.52C240.309 91.432 240.965 93.688 242.277 95.288C243.589 96.888 245.333 97.688 247.509 97.688ZM265.194 88.52C265.194 86.024 265.738 83.784 266.826 81.8C267.946 79.816 269.418 78.28 271.242 77.192C273.066 76.072 275.034 75.512 277.146 75.512C279.258 75.512 281.226 76.056 283.05 77.144C284.874 78.232 286.33 79.768 287.418 81.752C288.506 83.736 289.05 85.992 289.05 88.52C289.05 91.048 288.506 93.304 287.418 95.288C286.33 97.24 284.874 98.776 283.05 99.896C281.226 100.984 279.258 101.528 277.146 101.528C275.034 101.528 273.05 100.984 271.194 99.896C269.37 98.776 267.914 97.24 266.826 95.288C265.738 93.304 265.194 91.048 265.194 88.52ZM269.514 88.52C269.514 90.408 269.85 92.04 270.522 93.416C271.194 94.792 272.106 95.848 273.258 96.584C274.41 97.32 275.706 97.688 277.146 97.688C278.586 97.688 279.882 97.32 281.034 96.584C282.186 95.848 283.082 94.792 283.722 93.416C284.394 92.04 284.73 90.408 284.73 88.52C284.73 86.632 284.394 85 283.722 83.624C283.082 82.248 282.186 81.192 281.034 80.456C279.882 79.72 278.586 79.352 277.146 79.352C275.706 79.352 274.41 79.72 273.258 80.456C272.106 81.192 271.194 82.248 270.522 83.624C269.85 85 269.514 86.632 269.514 88.52ZM310.948 76.088L317.476 94.808L323.572 76.088H327.412L318.58 101H315.892L309.268 82.76L302.932 101H300.148L290.98 76.088H295.252L301.78 94.808L307.78 76.088H310.948ZM348.121 93.896C348.121 95.4 347.721 96.728 346.921 97.88C346.153 99.032 345.065 99.928 343.657 100.568C342.249 101.208 340.633 101.528 338.809 101.528C336.377 101.528 334.281 100.984 332.521 99.896C330.761 98.808 329.609 97.32 329.065 95.432L332.185 93.656C333.369 96.44 335.577 97.832 338.809 97.832C340.377 97.832 341.609 97.512 342.505 96.872C343.401 96.232 343.849 95.352 343.849 94.232C343.849 93.368 343.577 92.664 343.033 92.12C342.521 91.576 341.865 91.16 341.065 90.872C340.297 90.552 339.209 90.184 337.801 89.768C336.105 89.288 334.729 88.824 333.673 88.376C332.617 87.928 331.721 87.272 330.985 86.408C330.249 85.512 329.881 84.344 329.881 82.904C329.881 81.4 330.281 80.088 331.081 78.968C331.913 77.848 333.017 77 334.393 76.424C335.801 75.816 337.337 75.512 339.001 75.512C341.177 75.512 343.049 75.992 344.617 76.952C346.185 77.912 347.241 79.224 347.785 80.888L344.665 82.664C344.153 81.576 343.385 80.744 342.361 80.168C341.369 79.56 340.185 79.256 338.809 79.256C337.401 79.256 336.265 79.544 335.401 80.12C334.569 80.664 334.153 81.464 334.153 82.52C334.153 83.288 334.393 83.912 334.873 84.392C335.385 84.872 336.009 85.256 336.745 85.544C337.481 85.832 338.521 86.168 339.865 86.552C341.625 87.032 343.049 87.512 344.137 87.992C345.225 88.44 346.153 89.144 346.921 90.104C347.721 91.064 348.121 92.328 348.121 93.896Z" fill="white"/>
</svg>
