<svg width="420" height="128" viewBox="0 0 420 128" fill="none" xmlns="http://www.w3.org/2000/svg">
<rect width="420" height="128" fill="#1A2A37"/>
<path d="M140.851 42.1349C138.14 42.1349 135.623 41.1749 133.686 39.2607C131.745 37.3465 130.777 34.8563 130.777 31.9821C130.777 29.1109 131.745 26.6207 133.686 24.7036C135.623 22.7894 137.948 21.8323 140.854 21.8323C142.209 21.8323 143.568 22.0243 144.924 22.6003C146.084 23.0949 147.135 23.9996 148.022 24.8956L146.087 26.8127C144.924 25.2825 142.983 24.5145 140.854 24.5145C138.916 24.5145 137.174 25.2796 135.815 26.6207C134.46 27.9618 133.686 29.876 133.686 31.9821C133.686 34.2832 134.46 36.0025 135.815 37.3465C136.474 38.0139 137.258 38.5438 138.123 38.9053C138.988 39.2669 139.916 39.453 140.854 39.4527C142.986 39.4527 144.729 38.6876 146.087 37.3465C146.858 36.3865 147.443 35.2374 147.638 33.7072H140.659L140.659 31.0251H150.154C150.349 31.4091 150.349 32.1741 150.349 32.7472C150.349 35.4323 149.575 37.5356 148.022 39.2636C146.279 40.9858 143.76 42.1349 140.854 42.1349H140.851Z" fill="white"/>
<path d="M165.075 41.5591H153.642V22.2137H165.075V24.8959H156.356V30.6442H164.109V33.3235H156.356V39.069H165.075V41.5591Z" fill="white"/>
<path d="M172.825 41.5591V24.8959H167.588V22.2137H180.961V24.8959H175.731V41.5591H172.825Z" fill="white"/>
<path d="M192.784 41.5591H190.073L190.073 22.2137H192.784V41.5591Z" fill="white"/>
<path d="M216.231 69.3293C208.673 69.3293 202.666 75.0747 202.666 82.9293C202.666 90.7809 208.673 96.5264 216.231 96.5264C223.789 96.5264 229.793 90.7809 229.793 82.9293C229.793 75.0747 223.597 69.3293 216.231 69.3293ZM216.231 91.162C212.161 91.162 208.673 87.7147 208.673 82.9293C208.673 77.9489 212.164 74.6936 216.231 74.6936C220.301 74.6936 223.789 77.9489 223.789 82.9264C223.789 87.7147 220.298 91.162 216.228 91.162H216.231ZM186.585 69.3293C179.024 69.3293 173.02 75.0747 173.02 82.9293C173.02 90.7809 179.027 96.5264 186.585 96.5264C194.143 96.5264 200.147 90.7809 200.147 82.9293C200.147 75.0747 194.14 69.3293 186.585 69.3293ZM186.585 91.162C182.512 91.162 179.024 87.7147 179.024 82.9293C179.024 77.9489 182.515 74.6936 186.585 74.6936C190.652 74.6936 194.143 77.9489 194.143 82.9264C194.143 87.7147 190.652 91.162 186.585 91.162ZM151.315 73.5416V79.2871H165.072C164.685 82.5453 163.521 84.8435 161.974 86.5656C160.033 88.4798 156.932 90.7809 151.315 90.7809C142.791 90.7809 136.202 83.8864 136.202 75.4587C136.202 67.0311 142.788 60.1365 151.315 60.1365C155.967 60.1365 159.257 61.8616 161.584 64.1569L165.654 60.1365C162.166 56.8813 157.709 54.3911 151.312 54.3911C139.687 54.3911 130 63.7758 130 75.4587C130 87.1416 139.687 96.5264 151.315 96.5264C157.514 96.5264 162.361 94.4173 166.044 90.5889C169.916 86.7576 171.079 81.3962 171.079 77.1809C171.079 75.8427 170.887 74.6907 170.692 73.5445H151.315V73.5416ZM295.286 77.9489C294.125 74.8856 290.637 69.3293 283.661 69.3293C276.685 69.3293 270.873 74.8856 270.873 82.9293C270.873 90.5889 276.685 96.5264 284.243 96.5264C286.461 96.5451 288.65 96.0123 290.611 94.9759C292.573 93.9395 294.246 92.432 295.481 90.5889L290.832 87.5227C289.281 89.8209 287.149 91.354 284.243 91.354C281.145 91.354 279.012 90.0129 277.654 87.3336L295.676 79.8631L295.289 77.9489H295.286ZM276.88 82.5453C276.685 77.3729 280.947 74.6907 283.856 74.6907C286.183 74.6907 288.313 75.8398 288.895 77.5649L276.88 82.5424V82.5453ZM262.151 95.7584H268.161V55.7293H262.151V95.7584ZM252.464 72.3954H252.272C250.913 70.8624 248.394 69.3293 245.101 69.3293C238.32 69.3293 232.118 75.2667 232.118 82.9293C232.118 90.5889 238.32 96.5264 245.101 96.5264C248.394 96.5264 250.913 94.9933 252.272 93.4602H252.464V95.3744C252.464 100.547 249.753 103.418 245.293 103.418C241.613 103.418 239.481 100.739 238.515 98.6325L233.281 100.739C234.829 104.375 238.707 108.782 245.296 108.782C252.272 108.782 258.084 104.759 258.084 94.6093V70.2893H252.464V72.3954ZM245.683 91.162C241.613 91.162 238.125 87.7147 238.125 82.9293C238.125 78.1409 241.616 74.6936 245.683 74.6936C249.753 74.6936 252.854 78.1409 252.854 82.9264C252.854 87.7147 249.753 91.162 245.68 91.162H245.683ZM323.193 55.7293H309.046V95.7584H315.053V80.6311H323.385C329.974 80.6311 336.368 75.8427 336.368 68.1802C336.176 60.5205 329.782 55.7293 323.19 55.7293H323.193ZM323.385 75.0747H314.861V61.2856H323.385C327.841 61.2856 330.361 64.9249 330.361 68.1802C330.361 71.2435 327.841 75.0747 323.385 75.0747ZM360.01 69.3293C355.745 69.3293 351.289 71.2434 349.351 75.4558L354.582 77.7569C355.745 75.4587 357.875 74.8856 360.007 74.8856C363.108 74.8856 366.209 76.7969 366.209 80.0551V80.4391C364.293 79.4444 362.167 78.919 360.007 78.906C354.39 78.906 348.575 81.9693 348.575 87.9067C348.575 93.2711 353.229 96.7154 358.457 96.7154C362.529 96.7154 364.659 94.9933 366.017 92.8842H366.209V95.9504H372.022V80.6282C372.022 73.3525 366.788 69.3293 360.007 69.3293H360.01ZM359.236 91.162C357.296 91.162 354.582 90.202 354.582 87.7147C354.582 84.6515 357.875 83.4994 360.784 83.4994C363.303 83.4994 364.659 84.0754 366.209 84.8405C366.024 86.5663 365.211 88.1637 363.925 89.3292C362.639 90.4947 360.969 91.147 359.233 91.162H359.236ZM392.95 70.0973L386.166 87.3307H385.974L378.998 70.0973H372.604L383.263 94.2282L377.252 107.633H383.455L399.731 70.0973H392.95ZM339.469 95.7555H345.476V55.7351H339.469V95.7613V95.7555Z" fill="white"/>
<path fill-rule="evenodd" clip-rule="evenodd" d="M200.924 41.5593H203.443L203.443 24.896H208.868V22.2138L195.498 22.2137L195.498 24.896H200.924L200.924 41.5593Z" fill="white"/>
<path fill-rule="evenodd" clip-rule="evenodd" d="M223.43 41.7198C221.667 41.308 220.151 40.4427 218.816 39.1258C216.881 37.2116 215.912 34.7215 215.912 31.8473C215.912 28.976 216.881 26.6778 218.816 24.5687C220.756 22.6545 223.08 21.6975 225.989 21.6975C227.021 21.6975 228.025 21.8364 228.979 22.1138C230.734 22.526 232.34 23.3902 233.671 24.7036C235.609 26.6207 236.58 29.1109 236.58 31.9821C236.58 34.8563 235.609 37.1545 233.671 39.2607C231.734 40.9858 229.409 42.1349 226.5 42.1349C225.397 42.1349 224.377 41.9964 223.43 41.7198ZM221.462 26.4287C222.82 25.0905 224.563 24.3225 226.5 24.3225C226.767 24.3225 227.027 24.3345 227.282 24.3581C229.059 24.5235 230.521 25.2579 231.539 26.4287C232.897 27.7698 233.671 29.684 233.671 31.7901C233.671 33.8963 232.895 35.8163 231.539 37.1545C230.881 37.8223 230.096 38.3525 229.231 38.7145C228.366 39.0764 227.438 39.2628 226.5 39.2628C225.563 39.2628 224.634 39.0764 223.769 38.7145C222.904 38.3525 222.12 37.8223 221.462 37.1545C220.186 35.8923 219.353 33.8991 219.34 31.8473C219.34 29.9468 220.233 27.6446 221.462 26.4287Z" fill="white"/>
<path d="M254.791 22.2136V41.562H251.566L242.777 27.3628V41.562H239.357V22.2136H242.975L251.566 35.9493V22.2136H254.791Z" fill="white"/>
<path d="M33.2509 103.421C32.2822 102.261 31.8952 100.908 31.7032 99.5551V28.4162C31.7032 26.8715 32.0902 25.3238 33.248 24.1631C33.4429 24.1631 33.6349 24.358 33.8298 24.55L63.4065 54.1267L72.4916 63.2118L73.0734 63.7936C73.0734 64.1805 72.6836 64.3725 72.4916 64.5645L54.1265 82.9296C50.0683 86.9907 45.8152 91.0489 41.7542 95.302C39.2407 98.0074 36.5352 100.521 34.0218 103.229C33.6349 103.229 33.44 103.421 33.248 103.421H33.2509Z" fill="#01D4FE"/>
<path d="M33.251 103.421L44.0728 92.5964L72.4917 64.1804L72.8786 63.7935H73.0706C73.2655 63.7935 73.4575 63.9855 73.6524 64.1804L86.0219 76.5498C86.2168 76.7447 86.6037 76.9367 86.4088 77.3236C83.1215 79.2582 80.0291 80.9978 76.7448 82.9295C67.6597 88.1484 58.5746 93.3702 49.4866 98.3942C46.3942 100.134 43.107 102.068 40.0146 103.805C38.8568 104.582 37.5011 104.969 36.1484 104.774C34.7957 104.582 34.0248 104.192 33.248 103.421H33.251Z" fill="#FE3A44"/>
<path d="M72.8786 63.7933C64.3724 55.2872 55.8662 46.973 47.555 38.4697L33.635 24.5497C33.443 24.3577 33.248 24.3577 33.248 24.1628C34.4117 22.8101 35.9535 22.6181 37.696 23.005C39.0488 23.3919 40.4015 24.1628 41.5622 24.7446L57.8008 34.0246C63.0197 36.9221 68.2386 40.0173 73.4575 42.9148C77.7106 45.4283 81.9637 47.7468 86.2168 50.2603C86.4088 50.4552 86.0219 50.6472 86.0219 50.8421L73.4575 63.4064C73.2655 63.5984 73.0706 63.7933 72.8757 63.7933H72.8786Z" fill="#03EE76"/>
<path d="M72.8785 63.7933C73.0705 63.5984 73.2654 63.4064 73.2654 63.2115L85.8298 50.6472C86.0218 50.4552 86.2167 50.4552 86.2167 50.2603C91.4356 53.3526 96.8494 56.253 102.068 59.3453C103.421 60.1192 104.582 61.2799 104.969 62.8246C105.353 64.1803 104.774 65.5301 104 66.4988C103.418 67.2726 102.647 67.8515 101.876 68.2384C96.6545 71.1388 91.6276 74.0392 86.4087 76.9366C86.4087 76.9366 86.2167 76.9366 86.2167 77.1315C86.2167 76.9366 86.0218 76.7446 85.8298 76.5497C81.7687 72.2966 77.5185 68.2384 73.2625 63.9853C73.0705 63.9853 73.0705 63.7933 72.8785 63.7933Z" fill="#FED504"/>
</svg>
