<svg width="128" height="128" viewBox="0 0 128 128" fill="none" xmlns="http://www.w3.org/2000/svg">
<path d="M55.3127 49.6562H72.6252C76.1139 49.6562 81.3103 50.034 87.0004 51.6703C88.5147 52.1057 90.064 52.6304 91.6254 53.2607C92.2903 53.5292 92.9575 53.8169 93.6251 54.125V52.9999C92.9575 52.6918 92.2903 52.4042 91.6254 52.1357C90.064 51.5053 88.5147 50.9807 87.0004 50.5452C81.3103 48.9089 76.1139 48.5312 72.6252 48.5312H64.5002V23.2871V13.5V11.5H63.5002V13.5V23.5773V48.5312H55.3128C52.8323 48.5312 49.5051 48.7388 45.7504 49.4534C42.8194 50.0112 39.6279 50.8781 36.3754 52.1964C35.7106 52.4658 35.0433 52.7541 34.3751 53.0625L34.3751 54.1875C35.0433 53.8791 35.7106 53.5908 36.3754 53.3214C39.6279 52.0031 42.8194 51.1362 45.7504 50.5784C49.505 49.8638 52.8322 49.6562 55.3127 49.6562Z" fill="black"/>
<path d="M61.3126 116.625H68.8751C75.0558 116.625 79.8887 115.586 83.578 113.801C84.704 112.269 85.5284 110.58 86.0855 108.781C82.1787 112.363 75.9937 114.625 66.8754 114.625H59.3129C54.2825 114.625 49.8953 114.051 46.2038 112.932C46.3136 113.431 46.4432 113.918 46.5923 114.393C50.5955 115.866 55.529 116.625 61.3126 116.625Z" fill="#668999"/>
<path d="M89.435 24.4447C89.8768 24.6355 90.3151 24.8397 90.7491 25.0568C89.7738 23.2298 88.5849 21.5551 87.2363 20.0531C86.9747 19.7618 86.7071 19.4769 86.4339 19.1987C86.0464 18.8041 85.6476 18.4228 85.2386 18.0554C85.552 18.4045 85.8568 18.763 86.1522 19.1305C86.2755 19.2838 86.3971 19.4387 86.517 19.5951C87.6533 21.0769 88.6399 22.6987 89.435 24.4447Z" fill="#6E95A6"/>
<path d="M70.5629 22.5H80.4379C82.6005 22.5 84.8134 22.8564 86.9821 23.5336C86.9308 22.1781 86.772 20.8639 86.517 19.5951C86.3971 19.4387 86.2755 19.2838 86.1522 19.1305C81.6967 15.5392 76.2359 13.5 71.0629 13.5H64.5002V23.2871C66.4091 22.7791 68.4346 22.5 70.5629 22.5Z" fill="#A5E0FA"/>
<path d="M61.1879 13.5C46.2505 13.5 36.3754 27.25 36.3754 37.375V52.1964C39.6279 50.8781 42.8194 50.0112 45.7504 49.4534V46.375C45.7504 37.9473 52.5922 27.0081 63.5002 23.5773V13.5H61.1879Z" fill="#A5E0FA"/>
<path d="M45.7504 108.562C45.7502 96.25 45.7504 64.1875 45.7504 64.1875V50.5784C42.8194 51.1362 39.6279 52.0031 36.3754 53.3214V55.1875C36.3754 55.1875 36.3752 87.25 36.3754 99.5625C36.3754 103.512 37.3721 106.889 39.2952 109.654C41.2194 111.025 43.5289 112.122 46.2038 112.932C45.9029 111.565 45.7504 110.107 45.7504 108.562Z" fill="#A5E0FA"/>
<path d="M59.3129 114.625H66.8754C75.9937 114.625 82.1787 112.363 86.0855 108.781C86.7118 106.76 87.0004 104.601 87.0004 102.375V51.6703C81.3103 50.034 76.1139 49.6562 72.6252 49.6562H55.3127C52.8322 49.6562 49.505 49.8638 45.7504 50.5784V64.1875C45.7504 64.1875 45.7502 96.25 45.7504 108.562C45.7504 110.107 45.9029 111.565 46.2038 112.932C49.8953 114.051 54.2825 114.625 59.3129 114.625Z" fill="#9ED5EE"/>
<path d="M45.7504 46.375V49.4534C49.5051 48.7388 52.8323 48.5312 55.3128 48.5312H63.5002V23.5773C52.5922 27.0081 45.7504 37.9473 45.7504 46.375Z" fill="#9ED5EE"/>
<path d="M80.4379 22.5H70.5629C68.4346 22.5 66.4091 22.7791 64.5002 23.2871V48.5312H72.6252C76.1139 48.5312 81.3103 48.9089 87.0004 50.5452V24.5C87.0004 24.1756 86.9942 23.8534 86.9821 23.5336C84.8134 22.8564 82.6005 22.5 80.4379 22.5Z" fill="#9ED5EE"/>
<path d="M86.9821 23.5336C87.8079 23.7914 88.6273 24.0958 89.435 24.4447C88.6399 22.6987 87.6533 21.0769 86.517 19.5951C86.772 20.8639 86.9308 22.1781 86.9821 23.5336Z" fill="#A0D8F1"/>
<path d="M86.9821 23.5336C86.9942 23.8534 87.0004 24.1756 87.0004 24.5V50.5452C88.5147 50.9807 90.064 51.5053 91.6254 52.1357V34.625C91.6254 30.9099 90.8212 27.4885 89.435 24.4447C88.6273 24.0958 87.8079 23.7914 86.9821 23.5336Z" fill="#94C5DB"/>
<path d="M87.0004 102.375C87.0004 104.601 86.7118 106.76 86.0855 108.781C89.998 105.195 91.6254 100.285 91.6254 95V53.2607C90.064 52.6304 88.5147 52.1057 87.0004 51.6703V102.375Z" fill="#94C5DB"/>
<path d="M34.3751 35.375V53.0625C35.0433 52.7541 35.7106 52.4658 36.3754 52.1964V37.375C36.3754 27.25 46.2505 13.5 61.1879 13.5H63.5002V11.5H59.1876C44.2503 11.5 34.3751 25.25 34.3751 35.375Z" fill="#D2F0FD"/>
<path d="M36.3754 99.5625C36.3752 87.25 36.3754 55.1875 36.3754 55.1875V53.3214C35.7106 53.5908 35.0433 53.8791 34.3751 54.1875C34.375 66.5575 34.375 85.6184 34.3751 97.5625C34.3752 102.054 35.6641 105.804 38.1387 108.758C38.5072 109.068 38.8928 109.367 39.2952 109.654C37.3721 106.889 36.3754 103.512 36.3754 99.5625Z" fill="#D2F0FD"/>
<path d="M85.2386 18.0554C80.6038 13.8912 74.6645 11.5 69.0626 11.5H64.5002V13.5H71.0629C76.2359 13.5 81.6967 15.5392 86.1522 19.1305C85.8568 18.763 85.552 18.4045 85.2386 18.0554Z" fill="#D2F0FD"/>
<path d="M89.435 24.4447C90.8212 27.4885 91.6254 30.9099 91.6254 34.625V52.1357C92.2903 52.4042 92.9575 52.6918 93.6251 52.9999V36.625C93.6251 32.334 92.5524 28.435 90.7491 25.0568C90.3151 24.8397 89.8768 24.6355 89.435 24.4447Z" fill="#688699"/>
<path d="M83.578 113.801C90.7823 110.315 93.6251 103.985 93.6251 97V54.125C92.9575 53.8169 92.2903 53.5292 91.6254 53.2607V95C91.6254 100.285 89.998 105.195 86.0855 108.781C85.5284 110.58 84.704 112.269 83.578 113.801Z" fill="#688699"/>
<path d="M40.1401 110.759C41.9063 112.248 44.0637 113.463 46.5923 114.393C46.4432 113.918 46.3136 113.431 46.2038 112.932C43.5289 112.122 41.2194 111.025 39.2952 109.654C38.8928 109.367 38.5072 109.068 38.1387 108.758C38.737 109.472 39.4047 110.139 40.1401 110.759Z" fill="#6D95A6"/>
<rect x="60.625" y="24" width="8.5" height="13" rx="2.75" fill="black" fill-opacity="0.5"/>
<rect x="60.3752" y="22.875" width="7.25" height="12.875" rx="2.375" fill="#A5E0FA"/>
<path d="M61.6252 22.625H66.3752V23.125H61.6252V22.625Z" fill="black"/>
<path d="M60.6252 23.5H67.3752V24H60.6252V23.5Z" fill="black"/>
<path d="M60.3752 24.375H67.6252V24.875H60.3752V24.375Z" fill="black"/>
<path d="M60.3752 25.25H67.6252V25.75H60.3752V25.25Z" fill="black"/>
<path d="M60.3752 26.125H67.6252V26.625H60.3752V26.125Z" fill="black"/>
<path d="M60.3752 27H67.6252V27.5H60.3752V27Z" fill="black"/>
<path d="M60.3752 27.875H67.6252V28.375H60.3752V27.875Z" fill="black"/>
<path d="M60.3752 28.75H67.6252V29.25H60.3752V28.75Z" fill="black"/>
<path d="M60.3752 29.625H67.6252V30.125H60.3752V29.625Z" fill="black"/>
<path d="M60.3752 30.5H67.6252V31H60.3752V30.5Z" fill="black"/>
<path d="M60.3752 31.375H67.6252V31.875H60.3752V31.375Z" fill="black"/>
<path d="M60.3752 32.25H67.6252V32.75H60.3752V32.25Z" fill="black"/>
<path d="M60.3752 33.125H67.6252V33.625H60.3752V33.125Z" fill="black"/>
<path d="M60.3752 34H67.6252V34.5H60.3752V34Z" fill="black"/>
<path d="M60.8752 34.875H67.1252V35.375H60.8752V34.875Z" fill="black"/>
<path d="M62.3752 35.75H65.5002V36.25H62.3752V35.75Z" fill="black"/>
<rect x="60.0627" y="22.5625" width="7.875" height="13.5" rx="2.6875" stroke="black" stroke-width="0.625"/>
</svg>
