<svg width="128" height="128" viewBox="0 0 128 128" fill="none" xmlns="http://www.w3.org/2000/svg">
<path d="M46.4478 17.2035L48.5824 16.025H56.551V50.9351L61.5237 62.5218H66.5347L71.5136 50.9351V16.025H79.4822L89.2299 21.4038C90.6592 22.2204 91.8475 23.3999 92.6747 24.8231C93.5019 26.2463 93.9385 27.8627 93.9406 29.5088L94.0141 37.6766L101.417 46.9263V77.8996L87.6714 105.364C85.4199 109.896 81.9442 113.708 77.6378 116.366C73.3315 119.025 68.3667 120.424 63.3059 120.406C58.6436 120.391 54.0623 119.186 49.9951 116.907C45.9278 114.628 42.5091 111.349 40.0621 107.38L26.6504 85.4529V65.815L35.1202 49.8102L35.1891 28.4437" fill="white"/>
<path d="M55.089 16.025H73.7815V63.4029H55.089V16.025Z" fill="white"/>
<path d="M64.4644 24.4152C65.4399 24.4152 66.3753 24.8026 67.065 25.4924C67.7548 26.1821 68.1422 27.1176 68.1422 28.093V43.2548C68.1422 44.2302 67.7548 45.1656 67.065 45.8554C66.3753 46.5451 65.4399 46.9326 64.4644 46.9326C63.489 46.9326 62.5536 46.5451 61.8638 45.8554C61.1741 45.1656 60.7866 44.2302 60.7866 43.2548V28.093C60.7866 27.1176 61.1741 26.1821 61.8638 25.4924C62.5536 24.8026 63.489 24.4152 64.4644 24.4152Z" fill="#FF6660"/>
<path d="M64.2744 95.0061V62.5187H66.665L71.6346 50.9321V15.8396H79.6032L89.351 21.4038C90.7803 22.2204 91.9686 23.3999 92.7957 24.8231C93.6229 26.2463 94.0596 27.8627 94.0616 29.5088L94.1352 37.6766L94.0616 71.7607C89.4215 81.0411 74.6566 95.0061 64.2744 95.0061Z" fill="#72C69C"/>
<path d="M64.1579 95.2099C54.7365 95.2099 39.1641 80.8052 34.2496 72.7661L34.176 50.877L34.2496 29.5104C34.2516 27.8643 34.6883 26.2479 35.5155 24.8247C36.3426 23.4015 37.531 22.222 38.9602 21.4054L48.7065 15.8412H56.675V50.9337L61.6478 62.5203H64.2697C64.2743 76.6492 64.1579 88.4642 64.1579 95.2099Z" fill="#00B7D6"/>
<path d="M32.6958 50.6333H35.6564V97.4565H32.6958V50.6333Z" fill="#1E2148"/>
<path d="M92.658 38.049H95.6186V92.6446H92.658V38.049Z" fill="#20224A"/>
<path d="M62.6776 63.2192H65.6382V95.0522H62.6776V63.2192Z" fill="#22234C"/>
<path d="M63.9081 96.5308C58.7974 96.5308 53.5703 94.5218 48.3754 90.5544C43.3169 86.7003 38.1251 80.8664 32.9501 73.215L35.4019 71.5569C45.2799 86.1655 54.8637 93.5717 63.905 93.5717C72.9463 93.5717 82.8442 86.0628 93.2969 71.2489L95.7257 72.956C90.2627 80.6963 84.8563 86.5946 79.6552 90.4977C74.3101 94.5019 69.0141 96.5308 63.9081 96.5308Z" fill="#261D50"/>
<path d="M54.5343 16.0251V11.581C54.5343 10.5995 54.9242 9.65822 55.6182 8.96419C56.3123 8.27015 57.2536 7.88025 58.2351 7.88025H70.0792C71.0607 7.88025 72.002 8.27015 72.6961 8.96419C73.3901 9.65822 73.78 10.5995 73.78 11.581V16.0251H54.5343Z" fill="white"/>
<path d="M75.2618 17.5055H53.054V11.5843C53.0552 10.2104 53.6014 8.89309 54.5727 7.92146C55.5441 6.94983 56.8612 6.40323 58.2351 6.40161L70.0792 6.40161C71.4533 6.40283 72.7708 6.94925 73.7425 7.92092C74.7142 8.89259 75.2606 10.2101 75.2618 11.5843V17.5055ZM56.0146 14.5449H72.3012V11.5843C72.3004 10.9956 72.0662 10.4313 71.6499 10.015C71.2337 9.5988 70.6694 9.36459 70.0807 9.36378H58.2351C57.6464 9.36459 57.0821 9.5988 56.6659 10.015C56.2496 10.4313 56.0154 10.9956 56.0146 11.5843V14.5449Z" fill="#261D50"/>
<path d="M64.1349 48.413C61.5834 48.413 59.5085 46.099 59.5085 43.2549V28.0931C59.5085 25.2489 61.5834 22.9349 64.1349 22.9349C66.6864 22.9349 68.7552 25.2504 68.7552 28.0931V43.2549C68.7552 46.0914 66.6864 48.413 64.1349 48.413ZM64.1349 25.8956C63.2323 25.8956 62.4692 26.9024 62.4692 28.0931V43.2549C62.4692 44.4455 63.2354 45.4523 64.1349 45.4523C65.0345 45.4523 65.8007 44.4455 65.8007 43.2549V28.0931C65.8007 26.9024 65.0375 25.8956 64.1349 25.8956Z" fill="#261F4F"/>
<path fill-rule="evenodd" clip-rule="evenodd" d="M63.4315 122.236C58.5162 122.22 53.6862 120.951 49.3981 118.548C45.1099 116.145 41.5053 112.689 38.9251 108.505L25.2865 86.2193V65.8182L32.6912 50.8786L32.7693 29.8477L34.7967 23.5647C35.7037 22.2975 36.8742 21.2415 38.2278 20.4692L48.3249 14.8943H58.1616V50.9813L62.6255 61.391H65.6903L70.1558 50.9813V14.8943H79.9909L90.0911 20.4677C91.7466 21.4147 93.1229 22.7818 94.0811 24.4309C95.0392 26.08 95.5452 27.9527 95.548 29.8599L95.617 37.5021L103.025 46.7579V78.6001L89.1211 106.375C86.7473 111.154 83.0828 115.173 78.5424 117.976C74.0021 120.779 68.7675 122.255 63.4315 122.236ZM35.6549 51.5759L35.7254 29.8584L37.2057 25.2902C37.8617 24.3727 38.708 23.6075 39.6867 23.0468L49.0881 17.8549H55.1994V51.5897L60.6763 64.3517H67.6396L73.1149 51.5897V17.8549H79.2232L88.6276 23.0452C89.8292 23.735 90.8276 24.7295 91.522 25.9284C92.2164 27.1274 92.5824 28.4882 92.5828 29.8737L92.661 38.5534L100.061 47.7969V77.9014L86.4715 105.051C84.3423 109.337 81.0553 112.941 76.983 115.455C72.9107 117.969 68.2157 119.292 63.43 119.275C59.0216 119.261 54.6896 118.123 50.8436 115.968C46.9976 113.813 43.7647 110.713 41.4505 106.961L28.2533 85.3857V66.5109L35.6549 51.5759Z" fill="#261D50"/>
</svg>
