<svg width="120" height="120" viewBox="0 0 120 120" fill="none" xmlns="http://www.w3.org/2000/svg">
<rect x="3.75" y="31.875" width="112.5" height="56.25" rx="12.0968" fill="#00D297"/>
<path fill-rule="evenodd" clip-rule="evenodd" d="M47.4145 41.392C46.959 41.1287 46.5694 41.2963 46.4233 41.3808C46.2756 41.466 46.153 41.5887 46.0677 41.7364C45.9824 41.8841 45.9375 42.0516 45.9375 42.2222V73.3165C45.9375 73.507 45.9935 73.6934 46.0985 73.8523C46.2036 74.0113 46.353 74.1359 46.5283 74.2106C46.7036 74.2853 46.897 74.3068 47.0844 74.2724C47.2718 74.238 47.445 74.1493 47.5824 74.0173L54.6272 67.2495L60.5658 77.5355C60.8879 78.0933 61.4183 78.5004 62.0405 78.6671C62.6627 78.8339 63.3256 78.7468 63.8835 78.4249L69.7744 75.024C70.0508 74.8645 70.293 74.6521 70.4872 74.399C70.6815 74.1459 70.824 73.857 70.9065 73.5488C70.9891 73.2407 71.0102 72.9193 70.9686 72.6029C70.9269 72.2866 70.8234 71.9816 70.6638 71.7053L64.7247 61.4193L74.1076 58.7028C74.2906 58.6498 74.454 58.5442 74.5775 58.3991C74.7009 58.2539 74.779 58.0757 74.8019 57.8866C74.8249 57.6975 74.7918 57.5058 74.7067 57.3353C74.6215 57.1648 74.4882 57.0232 74.3232 56.9279H74.3235L47.4145 41.392ZM47.7042 71.4504V43.599L71.8235 57.5247L64.2852 59.7073C63.5222 59.9027 62.9581 60.5949 62.9581 61.4189C62.9581 61.7314 63.0392 62.0251 63.1816 62.2798L69.0928 72.5173C69.1746 72.6286 69.2229 72.7659 69.2229 72.9146C69.2229 73.1908 69.0561 73.428 68.8178 73.5311L63.0566 76.8626C62.9476 76.9389 62.815 76.9837 62.6719 76.9837C62.4016 76.9837 62.1686 76.824 62.0622 76.5938L56.1033 66.274C55.7869 65.7969 55.2451 65.4823 54.6298 65.4823C54.16 65.4823 53.733 65.6657 53.4166 65.9648L47.7042 71.4504Z" fill="white"/>
<path d="M47.7042 43.599V71.4504L53.4166 65.9648C53.733 65.6657 54.16 65.4823 54.6298 65.4823C55.2451 65.4823 55.7869 65.7969 56.1033 66.274L62.0622 76.5938C62.1686 76.824 62.4016 76.9837 62.6719 76.9837C62.815 76.9837 62.9476 76.9389 63.0566 76.8626L68.8178 73.5311C69.0561 73.428 69.2229 73.1908 69.2229 72.9146C69.2229 72.7659 69.1746 72.6286 69.0928 72.5173L63.1816 62.2798C63.0392 62.0251 62.9581 61.7314 62.9581 61.4189C62.9581 60.5949 63.5222 59.9027 64.2852 59.7073L71.8235 57.5247L47.7042 43.599Z" fill="white"/>
</svg>
