<svg width="128" height="128" viewBox="0 0 128 128" fill="none" xmlns="http://www.w3.org/2000/svg">
<path d="M38.375 19H22.75C20.6789 19 19 20.6789 19 22.75V38.375C19 40.4461 20.6789 42.125 22.75 42.125H38.375C40.4461 42.125 42.125 40.4461 42.125 38.375V22.75C42.125 20.6789 40.4461 19 38.375 19Z" fill="#42E63F" stroke="black" stroke-width="2.5"/>
<path d="M71.875 19H56.25C54.1789 19 52.5 20.6789 52.5 22.75V38.375C52.5 40.4461 54.1789 42.125 56.25 42.125H71.875C73.9461 42.125 75.625 40.4461 75.625 38.375V22.75C75.625 20.6789 73.9461 19 71.875 19Z" fill="#FEBF14" stroke="black" stroke-width="2.5"/>
<path d="M105.25 19H89.625C87.5539 19 85.875 20.6789 85.875 22.75V38.375C85.875 40.4461 87.5539 42.125 89.625 42.125H105.25C107.321 42.125 109 40.4461 109 38.375V22.75C109 20.6789 107.321 19 105.25 19Z" fill="#F48911" stroke="black" stroke-width="2.5"/>
<path d="M38.375 52.5H22.75C20.6789 52.5 19 54.1789 19 56.25V71.875C19 73.9461 20.6789 75.625 22.75 75.625H38.375C40.4461 75.625 42.125 73.9461 42.125 71.875V56.25C42.125 54.1789 40.4461 52.5 38.375 52.5Z" fill="#DC1F18" stroke="black" stroke-width="2.5"/>
<path d="M71.875 52.5H56.25C54.1789 52.5 52.5 54.1789 52.5 56.25V71.875C52.5 73.9461 54.1789 75.625 56.25 75.625H71.875C73.9461 75.625 75.625 73.9461 75.625 71.875V56.25C75.625 54.1789 73.9461 52.5 71.875 52.5Z" fill="#A2ACAF" stroke="black" stroke-width="2.5"/>
<path d="M105.25 52.5H89.625C87.5539 52.5 85.875 54.1789 85.875 56.25V71.875C85.875 73.9461 87.5539 75.625 89.625 75.625H105.25C107.321 75.625 109 73.9461 109 71.875V56.25C109 54.1789 107.321 52.5 105.25 52.5Z" fill="#FD425E" stroke="black" stroke-width="2.5"/>
<path d="M38.375 85.875H22.75C20.6789 85.875 19 87.5539 19 89.625V105.25C19 107.321 20.6789 109 22.75 109H38.375C40.4461 109 42.125 107.321 42.125 105.25V89.625C42.125 87.5539 40.4461 85.875 38.375 85.875Z" fill="#9F44D2" stroke="black" stroke-width="2.5"/>
<path d="M71.875 85.875H56.25C54.1789 85.875 52.5 87.5539 52.5 89.625V105.25C52.5 107.321 54.1789 109 56.25 109H71.875C73.9461 109 75.625 107.321 75.625 105.25V89.625C75.625 87.5539 73.9461 85.875 71.875 85.875Z" fill="#1B9AF6" stroke="black" stroke-width="2.5"/>
<path d="M105.25 85.875H89.625C87.5539 85.875 85.875 87.5539 85.875 89.625V105.25C85.875 107.321 87.5539 109 89.625 109H105.25C107.321 109 109 107.321 109 105.25V89.625C109 87.5539 107.321 85.875 105.25 85.875Z" fill="#2ECFA9" stroke="black" stroke-width="2.5"/>
</svg>
