<svg width="128" height="128" viewBox="0 0 128 128" fill="none" xmlns="http://www.w3.org/2000/svg">
<path d="M114.25 35.8751H14.25C10.7982 35.8751 8 38.6733 8 42.1251V86.5001C8 89.9519 10.7982 92.7501 14.25 92.7501H114.25C117.702 92.7501 120.5 89.9519 120.5 86.5001V42.1251C120.5 38.6733 117.702 35.8751 114.25 35.8751Z" fill="black"/>
<path d="M113.625 35.1251H13.625C10.1732 35.1251 7.375 37.9233 7.375 41.3751V85.7501C7.375 89.2019 10.1732 92.0001 13.625 92.0001H113.625C117.077 92.0001 119.875 89.2019 119.875 85.7501V41.3751C119.875 37.9233 117.077 35.1251 113.625 35.1251Z" fill="#006098"/>
<path d="M114.625 38.8751H109.5C108.741 38.8751 108.125 39.4907 108.125 40.2501V45.3751C108.125 46.1345 108.741 46.7501 109.5 46.7501H114.625C115.384 46.7501 116 46.1345 116 45.3751V40.2501C116 39.4907 115.384 38.8751 114.625 38.8751Z" fill="black"/>
<path d="M18.125 49.5001H13C12.2406 49.5001 11.625 50.1157 11.625 50.8751V56.0001C11.625 56.7595 12.2406 57.3751 13 57.3751H18.125C18.8844 57.3751 19.5 56.7595 19.5 56.0001V50.8751C19.5 50.1157 18.8844 49.5001 18.125 49.5001Z" fill="black"/>
<path d="M30.25 49.5001H25.125C24.3656 49.5001 23.75 50.1157 23.75 50.8751V56.0001C23.75 56.7595 24.3656 57.3751 25.125 57.3751H30.25C31.0094 57.3751 31.625 56.7595 31.625 56.0001V50.8751C31.625 50.1157 31.0094 49.5001 30.25 49.5001Z" fill="black"/>
<path d="M42.25 49.5001H37.125C36.3656 49.5001 35.75 50.1157 35.75 50.8751V56.0001C35.75 56.7595 36.3656 57.3751 37.125 57.3751H42.25C43.0094 57.3751 43.625 56.7595 43.625 56.0001V50.8751C43.625 50.1157 43.0094 49.5001 42.25 49.5001Z" fill="black"/>
<path d="M54.375 49.5001H49.25C48.4906 49.5001 47.875 50.1157 47.875 50.8751V56.0001C47.875 56.7595 48.4906 57.3751 49.25 57.3751H54.375C55.1344 57.3751 55.75 56.7595 55.75 56.0001V50.8751C55.75 50.1157 55.1344 49.5001 54.375 49.5001Z" fill="black"/>
<path d="M66.375 49.5001H61.25C60.4906 49.5001 59.875 50.1157 59.875 50.8751V56.0001C59.875 56.7595 60.4906 57.3751 61.25 57.3751H66.375C67.1344 57.3751 67.75 56.7595 67.75 56.0001V50.8751C67.75 50.1157 67.1344 49.5001 66.375 49.5001Z" fill="black"/>
<path d="M78.5 49.5001H73.375C72.6156 49.5001 72 50.1157 72 50.8751V56.0001C72 56.7595 72.6156 57.3751 73.375 57.3751H78.5C79.2594 57.3751 79.875 56.7595 79.875 56.0001V50.8751C79.875 50.1157 79.2594 49.5001 78.5 49.5001Z" fill="black"/>
<path d="M90.5 49.5001H85.375C84.6156 49.5001 84 50.1157 84 50.8751V56.0001C84 56.7595 84.6156 57.3751 85.375 57.3751H90.5C91.2594 57.3751 91.875 56.7595 91.875 56.0001V50.8751C91.875 50.1157 91.2594 49.5001 90.5 49.5001Z" fill="black"/>
<path d="M102.625 49.5001H97.5C96.7406 49.5001 96.125 50.1157 96.125 50.8751V56.0001C96.125 56.7595 96.7406 57.3751 97.5 57.3751H102.625C103.384 57.3751 104 56.7595 104 56.0001V50.8751C104 50.1157 103.384 49.5001 102.625 49.5001Z" fill="black"/>
<path d="M114.625 49.5001H109.5C108.741 49.5001 108.125 50.1157 108.125 50.8751V56.0001C108.125 56.7595 108.741 57.3751 109.5 57.3751H114.625C115.384 57.3751 116 56.7595 116 56.0001V50.8751C116 50.1157 115.384 49.5001 114.625 49.5001Z" fill="black"/>
<path d="M18.125 60.0001H13C12.2406 60.0001 11.625 60.6157 11.625 61.3751V66.5001C11.625 67.2595 12.2406 67.8751 13 67.8751H18.125C18.8844 67.8751 19.5 67.2595 19.5 66.5001V61.3751C19.5 60.6157 18.8844 60.0001 18.125 60.0001Z" fill="black"/>
<path d="M30.25 60.0001H25.125C24.3656 60.0001 23.75 60.6157 23.75 61.3751V66.5001C23.75 67.2595 24.3656 67.8751 25.125 67.8751H30.25C31.0094 67.8751 31.625 67.2595 31.625 66.5001V61.3751C31.625 60.6157 31.0094 60.0001 30.25 60.0001Z" fill="black"/>
<path d="M42.25 60.0001H37.125C36.3656 60.0001 35.75 60.6157 35.75 61.3751V66.5001C35.75 67.2595 36.3656 67.8751 37.125 67.8751H42.25C43.0094 67.8751 43.625 67.2595 43.625 66.5001V61.3751C43.625 60.6157 43.0094 60.0001 42.25 60.0001Z" fill="black"/>
<path d="M54.375 60.0001H49.25C48.4906 60.0001 47.875 60.6157 47.875 61.3751V66.5001C47.875 67.2595 48.4906 67.8751 49.25 67.8751H54.375C55.1344 67.8751 55.75 67.2595 55.75 66.5001V61.3751C55.75 60.6157 55.1344 60.0001 54.375 60.0001Z" fill="black"/>
<path d="M66.375 60.0001H61.25C60.4906 60.0001 59.875 60.6157 59.875 61.3751V66.5001C59.875 67.2595 60.4906 67.8751 61.25 67.8751H66.375C67.1344 67.8751 67.75 67.2595 67.75 66.5001V61.3751C67.75 60.6157 67.1344 60.0001 66.375 60.0001Z" fill="black"/>
<path d="M78.5 60.0001H73.375C72.6156 60.0001 72 60.6157 72 61.3751V66.5001C72 67.2595 72.6156 67.8751 73.375 67.8751H78.5C79.2594 67.8751 79.875 67.2595 79.875 66.5001V61.3751C79.875 60.6157 79.2594 60.0001 78.5 60.0001Z" fill="black"/>
<path d="M90.5 60.0001H85.375C84.6156 60.0001 84 60.6157 84 61.3751V66.5001C84 67.2595 84.6156 67.8751 85.375 67.8751H90.5C91.2594 67.8751 91.875 67.2595 91.875 66.5001V61.3751C91.875 60.6157 91.2594 60.0001 90.5 60.0001Z" fill="black"/>
<path d="M102.625 60.0001H97.5C96.7406 60.0001 96.125 60.6157 96.125 61.3751V66.5001C96.125 67.2595 96.7406 67.8751 97.5 67.8751H102.625C103.384 67.8751 104 67.2595 104 66.5001V61.3751C104 60.6157 103.384 60.0001 102.625 60.0001Z" fill="black"/>
<path d="M114.625 60.0001H109.5C108.741 60.0001 108.125 60.6157 108.125 61.3751V66.5001C108.125 67.2595 108.741 67.8751 109.5 67.8751H114.625C115.384 67.8751 116 67.2595 116 66.5001V61.3751C116 60.6157 115.384 60.0001 114.625 60.0001Z" fill="black"/>
<path d="M18.125 70.5001H13C12.2406 70.5001 11.625 71.1157 11.625 71.8751V77.0001C11.625 77.7595 12.2406 78.3751 13 78.3751H18.125C18.8844 78.3751 19.5 77.7595 19.5 77.0001V71.8751C19.5 71.1157 18.8844 70.5001 18.125 70.5001Z" fill="black"/>
<path d="M30.25 70.5001H25.125C24.3656 70.5001 23.75 71.1157 23.75 71.8751V77.0001C23.75 77.7595 24.3656 78.3751 25.125 78.3751H30.25C31.0094 78.3751 31.625 77.7595 31.625 77.0001V71.8751C31.625 71.1157 31.0094 70.5001 30.25 70.5001Z" fill="black"/>
<path d="M42.25 70.5001H37.125C36.3656 70.5001 35.75 71.1157 35.75 71.8751V77.0001C35.75 77.7595 36.3656 78.3751 37.125 78.3751H42.25C43.0094 78.3751 43.625 77.7595 43.625 77.0001V71.8751C43.625 71.1157 43.0094 70.5001 42.25 70.5001Z" fill="black"/>
<path d="M54.375 70.5001H49.25C48.4906 70.5001 47.875 71.1157 47.875 71.8751V77.0001C47.875 77.7595 48.4906 78.3751 49.25 78.3751H54.375C55.1344 78.3751 55.75 77.7595 55.75 77.0001V71.8751C55.75 71.1157 55.1344 70.5001 54.375 70.5001Z" fill="black"/>
<path d="M66.375 70.5001H61.25C60.4906 70.5001 59.875 71.1157 59.875 71.8751V77.0001C59.875 77.7595 60.4906 78.3751 61.25 78.3751H66.375C67.1344 78.3751 67.75 77.7595 67.75 77.0001V71.8751C67.75 71.1157 67.1344 70.5001 66.375 70.5001Z" fill="black"/>
<path d="M78.5 70.5001H73.375C72.6156 70.5001 72 71.1157 72 71.8751V77.0001C72 77.7595 72.6156 78.3751 73.375 78.3751H78.5C79.2594 78.3751 79.875 77.7595 79.875 77.0001V71.8751C79.875 71.1157 79.2594 70.5001 78.5 70.5001Z" fill="black"/>
<path d="M90.5 70.5001H85.375C84.6156 70.5001 84 71.1157 84 71.8751V77.0001C84 77.7595 84.6156 78.3751 85.375 78.3751H90.5C91.2594 78.3751 91.875 77.7595 91.875 77.0001V71.8751C91.875 71.1157 91.2594 70.5001 90.5 70.5001Z" fill="black"/>
<path d="M102.625 70.5001H97.5C96.7406 70.5001 96.125 71.1157 96.125 71.8751V77.0001C96.125 77.7595 96.7406 78.3751 97.5 78.3751H102.625C103.384 78.3751 104 77.7595 104 77.0001V71.8751C104 71.1157 103.384 70.5001 102.625 70.5001Z" fill="black"/>
<path d="M114.625 70.5001H109.5C108.741 70.5001 108.125 71.1157 108.125 71.8751V87.6251C108.125 88.3845 108.741 89.0001 109.5 89.0001H114.625C115.384 89.0001 116 88.3845 116 87.6251V71.8751C116 71.1157 115.384 70.5001 114.625 70.5001Z" fill="black"/>
<path d="M18.125 81.1251H13C12.2406 81.1251 11.625 81.7407 11.625 82.5001V87.6251C11.625 88.3845 12.2406 89.0001 13 89.0001H18.125C18.8844 89.0001 19.5 88.3845 19.5 87.6251V82.5001C19.5 81.7407 18.8844 81.1251 18.125 81.1251Z" fill="black"/>
<path d="M30.25 81.1251H25.125C24.3656 81.1251 23.75 81.7407 23.75 82.5001V87.6251C23.75 88.3845 24.3656 89.0001 25.125 89.0001H30.25C31.0094 89.0001 31.625 88.3845 31.625 87.6251V82.5001C31.625 81.7407 31.0094 81.1251 30.25 81.1251Z" fill="black"/>
<path d="M66.375 81.1251H37.125C36.3656 81.1251 35.75 81.7407 35.75 82.5001V87.6251C35.75 88.3845 36.3656 89.0001 37.125 89.0001H66.375C67.1344 89.0001 67.75 88.3845 67.75 87.6251V82.5001C67.75 81.7407 67.1344 81.1251 66.375 81.1251Z" fill="black"/>
<path d="M78.5 81.1251H73.375C72.6156 81.1251 72 81.7407 72 82.5001V87.6251C72 88.3845 72.6156 89.0001 73.375 89.0001H78.5C79.2594 89.0001 79.875 88.3845 79.875 87.6251V82.5001C79.875 81.7407 79.2594 81.1251 78.5 81.1251Z" fill="black"/>
<path d="M90.5 81.1251H85.375C84.6156 81.1251 84 81.7407 84 82.5001V87.6251C84 88.3845 84.6156 89.0001 85.375 89.0001H90.5C91.2594 89.0001 91.875 88.3845 91.875 87.6251V82.5001C91.875 81.7407 91.2594 81.1251 90.5 81.1251Z" fill="black"/>
<path d="M102.625 81.1251H97.5C96.7406 81.1251 96.125 81.7407 96.125 82.5001V87.6251C96.125 88.3845 96.7406 89.0001 97.5 89.0001H102.625C103.384 89.0001 104 88.3845 104 87.6251V82.5001C104 81.7407 103.384 81.1251 102.625 81.1251Z" fill="black"/>
<path d="M114.25 38.5001H109.125C108.366 38.5001 107.75 39.1157 107.75 39.8751V45.0001C107.75 45.7595 108.366 46.3751 109.125 46.3751H114.25C115.009 46.3751 115.625 45.7595 115.625 45.0001V39.8751C115.625 39.1157 115.009 38.5001 114.25 38.5001Z" fill="#FFCE00"/>
<path d="M17.75 49.1251H12.625C11.8656 49.1251 11.25 49.7407 11.25 50.5001V55.6251C11.25 56.3845 11.8656 57.0001 12.625 57.0001H17.75C18.5094 57.0001 19.125 56.3845 19.125 55.6251V50.5001C19.125 49.7407 18.5094 49.1251 17.75 49.1251Z" fill="#A5E6DA"/>
<path d="M29.875 49.1251H24.75C23.9906 49.1251 23.375 49.7407 23.375 50.5001V55.6251C23.375 56.3845 23.9906 57.0001 24.75 57.0001H29.875C30.6344 57.0001 31.25 56.3845 31.25 55.6251V50.5001C31.25 49.7407 30.6344 49.1251 29.875 49.1251Z" fill="#A5E6DA"/>
<path d="M41.875 49.1251H36.75C35.9906 49.1251 35.375 49.7407 35.375 50.5001V55.6251C35.375 56.3845 35.9906 57.0001 36.75 57.0001H41.875C42.6344 57.0001 43.25 56.3845 43.25 55.6251V50.5001C43.25 49.7407 42.6344 49.1251 41.875 49.1251Z" fill="#A5E6DA"/>
<path d="M54 49.1251H48.875C48.1156 49.1251 47.5 49.7407 47.5 50.5001V55.6251C47.5 56.3845 48.1156 57.0001 48.875 57.0001H54C54.7594 57.0001 55.375 56.3845 55.375 55.6251V50.5001C55.375 49.7407 54.7594 49.1251 54 49.1251Z" fill="#A5E6DA"/>
<path d="M66 49.1251H60.875C60.1156 49.1251 59.5 49.7407 59.5 50.5001V55.6251C59.5 56.3845 60.1156 57.0001 60.875 57.0001H66C66.7594 57.0001 67.375 56.3845 67.375 55.6251V50.5001C67.375 49.7407 66.7594 49.1251 66 49.1251Z" fill="#A5E6DA"/>
<path d="M78.125 49.1251H73C72.2406 49.1251 71.625 49.7407 71.625 50.5001V55.6251C71.625 56.3845 72.2406 57.0001 73 57.0001H78.125C78.8844 57.0001 79.5 56.3845 79.5 55.6251V50.5001C79.5 49.7407 78.8844 49.1251 78.125 49.1251Z" fill="#A5E6DA"/>
<path d="M90.125 49.1251H85C84.2406 49.1251 83.625 49.7407 83.625 50.5001V55.6251C83.625 56.3845 84.2406 57.0001 85 57.0001H90.125C90.8844 57.0001 91.5 56.3845 91.5 55.6251V50.5001C91.5 49.7407 90.8844 49.1251 90.125 49.1251Z" fill="#A5E6DA"/>
<path d="M102.25 49.1251H97.125C96.3656 49.1251 95.75 49.7407 95.75 50.5001V55.6251C95.75 56.3845 96.3656 57.0001 97.125 57.0001H102.25C103.009 57.0001 103.625 56.3845 103.625 55.6251V50.5001C103.625 49.7407 103.009 49.1251 102.25 49.1251Z" fill="#A5E6DA"/>
<path d="M114.25 49.1251H109.125C108.366 49.1251 107.75 49.7407 107.75 50.5001V55.6251C107.75 56.3845 108.366 57.0001 109.125 57.0001H114.25C115.009 57.0001 115.625 56.3845 115.625 55.6251V50.5001C115.625 49.7407 115.009 49.1251 114.25 49.1251Z" fill="#A5E6DA"/>
<path d="M17.75 59.6251H12.625C11.8656 59.6251 11.25 60.2407 11.25 61.0001V66.1251C11.25 66.8845 11.8656 67.5001 12.625 67.5001H17.75C18.5094 67.5001 19.125 66.8845 19.125 66.1251V61.0001C19.125 60.2407 18.5094 59.6251 17.75 59.6251Z" fill="#A5E6DA"/>
<path d="M29.875 59.6251H24.75C23.9906 59.6251 23.375 60.2407 23.375 61.0001V66.1251C23.375 66.8845 23.9906 67.5001 24.75 67.5001H29.875C30.6344 67.5001 31.25 66.8845 31.25 66.1251V61.0001C31.25 60.2407 30.6344 59.6251 29.875 59.6251Z" fill="#A5E6DA"/>
<path d="M41.875 59.6251H36.75C35.9906 59.6251 35.375 60.2407 35.375 61.0001V66.1251C35.375 66.8845 35.9906 67.5001 36.75 67.5001H41.875C42.6344 67.5001 43.25 66.8845 43.25 66.1251V61.0001C43.25 60.2407 42.6344 59.6251 41.875 59.6251Z" fill="#A5E6DA"/>
<path d="M54 59.6251H48.875C48.1156 59.6251 47.5 60.2407 47.5 61.0001V66.1251C47.5 66.8845 48.1156 67.5001 48.875 67.5001H54C54.7594 67.5001 55.375 66.8845 55.375 66.1251V61.0001C55.375 60.2407 54.7594 59.6251 54 59.6251Z" fill="#A5E6DA"/>
<path d="M66 59.6251H60.875C60.1156 59.6251 59.5 60.2407 59.5 61.0001V66.1251C59.5 66.8845 60.1156 67.5001 60.875 67.5001H66C66.7594 67.5001 67.375 66.8845 67.375 66.1251V61.0001C67.375 60.2407 66.7594 59.6251 66 59.6251Z" fill="#A5E6DA"/>
<path d="M78.125 59.6251H73C72.2406 59.6251 71.625 60.2407 71.625 61.0001V66.1251C71.625 66.8845 72.2406 67.5001 73 67.5001H78.125C78.8844 67.5001 79.5 66.8845 79.5 66.1251V61.0001C79.5 60.2407 78.8844 59.6251 78.125 59.6251Z" fill="#A5E6DA"/>
<path d="M90.125 59.6251H85C84.2406 59.6251 83.625 60.2407 83.625 61.0001V66.1251C83.625 66.8845 84.2406 67.5001 85 67.5001H90.125C90.8844 67.5001 91.5 66.8845 91.5 66.1251V61.0001C91.5 60.2407 90.8844 59.6251 90.125 59.6251Z" fill="#A5E6DA"/>
<path d="M102.25 59.6251H97.125C96.3656 59.6251 95.75 60.2407 95.75 61.0001V66.1251C95.75 66.8845 96.3656 67.5001 97.125 67.5001H102.25C103.009 67.5001 103.625 66.8845 103.625 66.1251V61.0001C103.625 60.2407 103.009 59.6251 102.25 59.6251Z" fill="#A5E6DA"/>
<path d="M114.25 59.6251H109.125C108.366 59.6251 107.75 60.2407 107.75 61.0001V66.1251C107.75 66.8845 108.366 67.5001 109.125 67.5001H114.25C115.009 67.5001 115.625 66.8845 115.625 66.1251V61.0001C115.625 60.2407 115.009 59.6251 114.25 59.6251Z" fill="#A5E6DA"/>
<path d="M17.75 70.1251H12.625C11.8656 70.1251 11.25 70.7407 11.25 71.5001V76.6251C11.25 77.3845 11.8656 78.0001 12.625 78.0001H17.75C18.5094 78.0001 19.125 77.3845 19.125 76.6251V71.5001C19.125 70.7407 18.5094 70.1251 17.75 70.1251Z" fill="#A5E6DA"/>
<path d="M29.875 70.1251H24.75C23.9906 70.1251 23.375 70.7407 23.375 71.5001V76.6251C23.375 77.3845 23.9906 78.0001 24.75 78.0001H29.875C30.6344 78.0001 31.25 77.3845 31.25 76.6251V71.5001C31.25 70.7407 30.6344 70.1251 29.875 70.1251Z" fill="#A5E6DA"/>
<path d="M41.875 70.1251H36.75C35.9906 70.1251 35.375 70.7407 35.375 71.5001V76.6251C35.375 77.3845 35.9906 78.0001 36.75 78.0001H41.875C42.6344 78.0001 43.25 77.3845 43.25 76.6251V71.5001C43.25 70.7407 42.6344 70.1251 41.875 70.1251Z" fill="#A5E6DA"/>
<path d="M54 70.1251H48.875C48.1156 70.1251 47.5 70.7407 47.5 71.5001V76.6251C47.5 77.3845 48.1156 78.0001 48.875 78.0001H54C54.7594 78.0001 55.375 77.3845 55.375 76.6251V71.5001C55.375 70.7407 54.7594 70.1251 54 70.1251Z" fill="#A5E6DA"/>
<path d="M66 70.1251H60.875C60.1156 70.1251 59.5 70.7407 59.5 71.5001V76.6251C59.5 77.3845 60.1156 78.0001 60.875 78.0001H66C66.7594 78.0001 67.375 77.3845 67.375 76.6251V71.5001C67.375 70.7407 66.7594 70.1251 66 70.1251Z" fill="#A5E6DA"/>
<path d="M78.125 70.1251H73C72.2406 70.1251 71.625 70.7407 71.625 71.5001V76.6251C71.625 77.3845 72.2406 78.0001 73 78.0001H78.125C78.8844 78.0001 79.5 77.3845 79.5 76.6251V71.5001C79.5 70.7407 78.8844 70.1251 78.125 70.1251Z" fill="#A5E6DA"/>
<path d="M90.125 70.1251H85C84.2406 70.1251 83.625 70.7407 83.625 71.5001V76.6251C83.625 77.3845 84.2406 78.0001 85 78.0001H90.125C90.8844 78.0001 91.5 77.3845 91.5 76.6251V71.5001C91.5 70.7407 90.8844 70.1251 90.125 70.1251Z" fill="#A5E6DA"/>
<path d="M102.25 70.1251H97.125C96.3656 70.1251 95.75 70.7407 95.75 71.5001V76.6251C95.75 77.3845 96.3656 78.0001 97.125 78.0001H102.25C103.009 78.0001 103.625 77.3845 103.625 76.6251V71.5001C103.625 70.7407 103.009 70.1251 102.25 70.1251Z" fill="#A5E6DA"/>
<path d="M114.25 70.1251H109.125C108.366 70.1251 107.75 70.7407 107.75 71.5001V87.2501C107.75 88.0095 108.366 88.6251 109.125 88.6251H114.25C115.009 88.6251 115.625 88.0095 115.625 87.2501V71.5001C115.625 70.7407 115.009 70.1251 114.25 70.1251Z" fill="#ED7161"/>
<path d="M17.75 80.7501H12.625C11.8656 80.7501 11.25 81.3657 11.25 82.1251V87.2501C11.25 88.0095 11.8656 88.6251 12.625 88.6251H17.75C18.5094 88.6251 19.125 88.0095 19.125 87.2501V82.1251C19.125 81.3657 18.5094 80.7501 17.75 80.7501Z" fill="#A5E6DA"/>
<path d="M29.875 80.7501H24.75C23.9906 80.7501 23.375 81.3657 23.375 82.1251V87.2501C23.375 88.0095 23.9906 88.6251 24.75 88.6251H29.875C30.6344 88.6251 31.25 88.0095 31.25 87.2501V82.1251C31.25 81.3657 30.6344 80.7501 29.875 80.7501Z" fill="#A5E6DA"/>
<path d="M66 80.7501H36.75C35.9906 80.7501 35.375 81.3657 35.375 82.1251V87.2501C35.375 88.0095 35.9906 88.6251 36.75 88.6251H66C66.7594 88.6251 67.375 88.0095 67.375 87.2501V82.1251C67.375 81.3657 66.7594 80.7501 66 80.7501Z" fill="#A5E6DA"/>
<path d="M78.125 80.7501H73C72.2406 80.7501 71.625 81.3657 71.625 82.1251V87.2501C71.625 88.0095 72.2406 88.6251 73 88.6251H78.125C78.8844 88.6251 79.5 88.0095 79.5 87.2501V82.1251C79.5 81.3657 78.8844 80.7501 78.125 80.7501Z" fill="#A5E6DA"/>
<path d="M90.125 80.7501H85C84.2406 80.7501 83.625 81.3657 83.625 82.1251V87.2501C83.625 88.0095 84.2406 88.6251 85 88.6251H90.125C90.8844 88.6251 91.5 88.0095 91.5 87.2501V82.1251C91.5 81.3657 90.8844 80.7501 90.125 80.7501Z" fill="#A5E6DA"/>
<path d="M102.25 80.7501H97.125C96.3656 80.7501 95.75 81.3657 95.75 82.1251V87.2501C95.75 88.0095 96.3656 88.6251 97.125 88.6251H102.25C103.009 88.6251 103.625 88.0095 103.625 87.2501V82.1251C103.625 81.3657 103.009 80.7501 102.25 80.7501Z" fill="#A5E6DA"/>
<path d="M102.125 38.5001H12.625C11.8656 38.5001 11.25 39.1157 11.25 39.8751V45.0001C11.25 45.7595 11.8656 46.3751 12.625 46.3751H102.125C102.884 46.3751 103.5 45.7595 103.5 45.0001V39.8751C103.5 39.1157 102.884 38.5001 102.125 38.5001Z" fill="black"/>
<mask id="mask0_2044_4359" style="mask-type:alpha" maskUnits="userSpaceOnUse" x="11" y="38" width="93" height="9">
<path d="M102.125 38.5001H12.625C11.8656 38.5001 11.25 39.1157 11.25 39.8751V45.0001C11.25 45.7595 11.8656 46.3751 12.625 46.3751H102.125C102.884 46.3751 103.5 45.7595 103.5 45.0001V39.8751C103.5 39.1157 102.884 38.5001 102.125 38.5001Z" fill="black"/>
</mask>
<g mask="url(#mask0_2044_4359)">
<path fill-rule="evenodd" clip-rule="evenodd" d="M58.1304 37.9823L52.3765 33.8019L42.875 46.8797L48.6287 51.06L58.1304 37.9823ZM34.1844 38.1453L30.1994 35.2501L21.75 46.8797L25.7349 49.775L34.1844 38.1453Z" fill="#D9D9D9"/>
</g>
</svg>
