<svg width="128" height="128" viewBox="0 0 128 128" fill="none" xmlns="http://www.w3.org/2000/svg">
<rect x="4" y="34" width="120" height="60" rx="12.9032" fill="#00D297"/>
<path d="M49.9734 50.2505L67.17 62.757C67.3816 62.9108 67.5539 63.1126 67.6727 63.3457C67.7914 63.5789 67.8533 63.8368 67.8533 64.0985C67.8533 64.3602 67.7914 64.6181 67.6727 64.8513C67.5539 65.0844 67.3816 65.2862 67.17 65.44L49.9734 77.9462C49.7259 78.126 49.4335 78.2338 49.1285 78.2578C48.8235 78.2818 48.5179 78.2211 48.2453 78.0822C47.9727 77.9434 47.7438 77.7319 47.5838 77.4711C47.4239 77.2104 47.3392 76.9105 47.339 76.6046V51.5919C47.3389 51.2859 47.4235 50.9858 47.5834 50.7249C47.7433 50.464 47.9722 50.2524 48.2449 50.1135C48.5176 49.9747 48.8234 49.914 49.1285 49.9382C49.4335 49.9623 49.7259 50.0704 49.9734 50.2505Z" fill="white"/>
<path d="M77.2572 49.4422C76.974 49.7254 76.8148 50.1095 76.8148 50.51V77.49C76.8148 77.8905 76.974 78.2746 77.2572 78.5578C77.5404 78.8409 77.9245 79 78.325 79C78.7255 79 79.1096 78.8409 79.3928 78.5578C79.676 78.2746 79.8351 77.8905 79.8352 77.49V50.51C79.8351 50.1095 79.676 49.7254 79.3928 49.4422C79.1096 49.1591 78.7255 49 78.325 49C77.9245 49 77.5404 49.1591 77.2572 49.4422Z" fill="white"/>
<path d="M69.8722 49.4422C69.589 49.7254 69.4298 50.1095 69.4298 50.51V77.49C69.4298 77.8905 69.589 78.2746 69.8722 78.5578C70.1554 78.8409 70.5395 79 70.94 79C71.3405 79 71.7246 78.8409 72.0078 78.5578C72.291 78.2746 72.4501 77.8905 72.4502 77.49V50.51C72.4501 50.1095 72.291 49.7254 72.0078 49.4422C71.7246 49.1591 71.3405 49 70.94 49C70.5395 49 70.1554 49.1591 69.8722 49.4422Z" fill="white"/>
</svg>
