<svg width="50" height="10" viewBox="0 0 50 10" fill="none" xmlns="http://www.w3.org/2000/svg">
<path d="M49.3945 3.94629C49.3652 3.85938 49.29 3.7959 49.1992 3.78223L46.4531 3.36816L45.2236 0.782227C45.1836 0.697266 45.0976 0.642578 45.0029 0.642578C44.9082 0.642578 44.8232 0.697266 44.7822 0.782227L43.5527 3.36816L40.8066 3.78223C40.7158 3.7959 40.6406 3.85938 40.6113 3.94629C40.582 4.0332 40.6045 4.12988 40.6689 4.19531L42.6611 6.21094L42.1904 9.05859C42.1748 9.15039 42.2138 9.24317 42.29 9.29785C42.3662 9.35156 42.4668 9.35742 42.5478 9.31348L45.0019 7.97461L47.456 9.31348C47.4922 9.33301 47.5332 9.34375 47.5732 9.34375C47.623 9.34375 47.6728 9.32813 47.7148 9.29883C47.791 9.24512 47.8291 9.15234 47.8144 9.05957L47.3437 6.20996L49.3359 4.19434C49.4013 4.12988 49.4238 4.0332 49.3945 3.94629Z" fill="#398462"/>
<path d="M39.3945 3.94629C39.3652 3.85938 39.29 3.7959 39.1992 3.78223L36.4531 3.36816L35.2236 0.782227C35.1836 0.697266 35.0976 0.642578 35.0029 0.642578C34.9082 0.642578 34.8232 0.697266 34.7822 0.782227L33.5527 3.36816L30.8066 3.78223C30.7158 3.7959 30.6406 3.85938 30.6113 3.94629C30.582 4.0332 30.6045 4.12988 30.6689 4.19531L32.6611 6.21094L32.1904 9.05859C32.1748 9.15039 32.2138 9.24317 32.29 9.29785C32.3662 9.35156 32.4668 9.35742 32.5478 9.31348L35.0019 7.97461L37.456 9.31348C37.4922 9.33301 37.5332 9.34375 37.5732 9.34375C37.623 9.34375 37.6728 9.32813 37.7148 9.29883C37.791 9.24512 37.8291 9.15234 37.8144 9.05957L37.3437 6.20996L39.3359 4.19434C39.4013 4.12988 39.4238 4.0332 39.3945 3.94629Z" fill="#398462"/>
<path d="M29.3945 3.94629C29.3652 3.85938 29.29 3.7959 29.1992 3.78223L26.4531 3.36816L25.2236 0.782227C25.1836 0.697266 25.0976 0.642578 25.0029 0.642578C24.9082 0.642578 24.8232 0.697266 24.7822 0.782227L23.5527 3.36816L20.8066 3.78223C20.7158 3.7959 20.6406 3.85938 20.6113 3.94629C20.582 4.0332 20.6045 4.12988 20.6689 4.19531L22.6611 6.21094L22.1904 9.05859C22.1748 9.15039 22.2138 9.24317 22.29 9.29785C22.3662 9.35156 22.4668 9.35742 22.5478 9.31348L25.0019 7.97461L27.456 9.31348C27.4922 9.33301 27.5332 9.34375 27.5732 9.34375C27.623 9.34375 27.6728 9.32813 27.7148 9.29883C27.791 9.24512 27.8291 9.15234 27.8144 9.05957L27.3437 6.20996L29.3359 4.19434C29.4013 4.12988 29.4238 4.0332 29.3945 3.94629Z" fill="#398462"/>
<path d="M19.3945 3.94629C19.3652 3.85938 19.29 3.7959 19.1992 3.78223L16.4531 3.36816L15.2236 0.782227C15.1836 0.697266 15.0976 0.642578 15.0029 0.642578C14.9082 0.642578 14.8232 0.697266 14.7822 0.782227L13.5527 3.36816L10.8066 3.78223C10.7158 3.7959 10.6406 3.85938 10.6113 3.94629C10.582 4.0332 10.6045 4.12988 10.6689 4.19531L12.6611 6.21094L12.1904 9.05859C12.1748 9.15039 12.2138 9.24317 12.29 9.29785C12.3662 9.35156 12.4668 9.35742 12.5478 9.31348L15.0019 7.97461L17.456 9.31348C17.4922 9.33301 17.5332 9.34375 17.5732 9.34375C17.623 9.34375 17.6728 9.32813 17.7148 9.29883C17.791 9.24512 17.8291 9.15234 17.8144 9.05957L17.3437 6.20996L19.3359 4.19434C19.4013 4.12988 19.4238 4.0332 19.3945 3.94629Z" fill="#398462"/>
<path d="M9.3945 3.94629C9.36521 3.85938 9.29001 3.7959 9.19919 3.78223L6.4531 3.36816L5.22361 0.782227C5.18357 0.697266 5.09763 0.642578 5.0029 0.642578C4.90818 0.642578 4.82322 0.697266 4.7822 0.782227L3.55271 3.36816L0.806613 3.78223C0.715793 3.7959 0.640598 3.85938 0.611301 3.94629C0.582004 4.0332 0.604465 4.12988 0.668918 4.19531L2.66111 6.21094L2.1904 9.05859C2.17478 9.15039 2.21384 9.24317 2.29001 9.29785C2.36618 9.35156 2.46677 9.35742 2.54782 9.31348L5.00193 7.97461L7.45603 9.31348C7.49216 9.33301 7.53318 9.34375 7.57322 9.34375C7.62302 9.34375 7.67282 9.32813 7.71482 9.29883C7.79099 9.24512 7.82907 9.15234 7.81443 9.05957L7.34372 6.20996L9.33591 4.19434C9.40134 4.12988 9.4238 4.0332 9.3945 3.94629Z" fill="#398462"/>
</svg>
