<svg width="172" height="397" viewBox="0 0 172 397" fill="none" xmlns="http://www.w3.org/2000/svg">
<path fill-rule="evenodd" clip-rule="evenodd" d="M57.8139 198.116C56.832 197.549 55.9921 197.91 55.6773 198.092C55.3588 198.276 55.0944 198.54 54.9106 198.859C54.7267 199.177 54.6299 199.538 54.6299 199.906V266.938C54.6298 267.348 54.7505 267.75 54.977 268.093C55.2035 268.435 55.5257 268.704 55.9035 268.865C56.2814 269.026 56.6983 269.072 57.1023 268.998C57.5064 268.924 57.8797 268.733 58.1759 268.448L73.3628 253.859L86.1649 276.033C86.8593 277.235 88.0028 278.113 89.344 278.472C90.6853 278.832 92.1144 278.644 93.3171 277.95L106.017 270.618C106.612 270.275 107.134 269.817 107.553 269.271C107.972 268.726 108.279 268.103 108.457 267.439C108.635 266.774 108.681 266.081 108.591 265.399C108.501 264.717 108.278 264.06 107.934 263.464L95.1304 241.29L115.358 235.434C115.752 235.32 116.105 235.092 116.371 234.779C116.637 234.466 116.805 234.082 116.855 233.675C116.904 233.267 116.833 232.853 116.649 232.486C116.466 232.119 116.178 231.813 115.823 231.608H115.823L57.8139 198.116ZM58.4385 262.915V202.874L110.434 232.894L94.1831 237.599C92.5381 238.021 91.3222 239.513 91.3222 241.289C91.3222 241.963 91.4969 242.596 91.8039 243.145L104.547 265.215C104.723 265.455 104.828 265.751 104.828 266.071C104.828 266.667 104.468 267.178 103.954 267.4L91.5344 274.582C91.2996 274.747 91.0136 274.843 90.7051 274.843C90.1225 274.843 89.6203 274.499 89.3908 274.003L76.5448 251.756C75.8629 250.727 74.6948 250.049 73.3683 250.049C72.3556 250.049 71.4352 250.444 70.7529 251.089L58.4385 262.915Z" fill="white"/>
<path d="M58.4385 202.874V262.915L70.7529 251.089C71.4352 250.444 72.3556 250.049 73.3683 250.049C74.6948 250.049 75.8629 250.727 76.5448 251.756L89.3908 274.003C89.6203 274.499 90.1225 274.843 90.7051 274.843C91.0136 274.843 91.2996 274.747 91.5344 274.582L103.954 267.4C104.468 267.178 104.828 266.667 104.828 266.071C104.828 265.751 104.723 265.455 104.547 265.215L91.8039 243.145C91.4969 242.596 91.3222 241.963 91.3222 241.289C91.3222 239.513 92.5381 238.021 94.1831 237.599L110.434 232.894L58.4385 202.874Z" fill="#1A2A36"/>
<rect y="352" width="152" height="40" rx="9" fill="#D1D4D7"/>
</svg>
