<svg width="2400" height="944" viewBox="0 0 2400 944" fill="none" xmlns="http://www.w3.org/2000/svg">
<rect width="2400" height="944" fill="#3C3C3C"/>
<rect x="6" y="6" width="220" height="145" rx="18" fill="#242629"/>
<rect x="238" y="6" width="149" height="145" rx="18" fill="#242629"/>
<rect x="399" y="6" width="149" height="145" rx="18" fill="#242629"/>
<rect x="560" y="6" width="149" height="145" rx="18" fill="#242629"/>
<rect x="721" y="6" width="149" height="145" rx="18" fill="#242629"/>
<rect x="882" y="6" width="149" height="145" rx="18" fill="#242629"/>
<rect x="1043" y="6" width="149" height="145" rx="18" fill="#242629"/>
<rect x="1204" y="6" width="149" height="145" rx="18" fill="#242629"/>
<rect x="1365" y="6" width="149" height="145" rx="18" fill="#242629"/>
<rect x="1526" y="6" width="149" height="145" rx="18" fill="#242629"/>
<rect x="1687" y="6" width="149" height="145" rx="18" fill="#242629"/>
<rect x="1848" y="6" width="149" height="145" rx="18" fill="#242629"/>
<rect x="2009" y="6" width="149" height="145" rx="18" fill="#242629"/>
<rect x="2170" y="6" width="224" height="145" rx="18" fill="#242629"/>
<rect x="6" y="163" width="149" height="145" rx="18" fill="#242629"/>
<rect x="167" y="163" width="149" height="145" rx="18" fill="#242629"/>
<rect x="328" y="163" width="149" height="145" rx="18" fill="#242629"/>
<rect x="489" y="163" width="149" height="145" rx="18" fill="#242629"/>
<rect x="650" y="163" width="149" height="145" rx="18" fill="#242629"/>
<rect x="811" y="163" width="149" height="145" rx="18" fill="#242629"/>
<rect x="972" y="163" width="149" height="145" rx="18" fill="#242629"/>
<rect x="1133" y="163" width="149" height="145" rx="18" fill="#242629"/>
<rect x="1294" y="163" width="149" height="145" rx="18" fill="#242629"/>
<rect x="1455" y="163" width="149" height="145" rx="18" fill="#242629"/>
<rect x="1616" y="163" width="149" height="145" rx="18" fill="#242629"/>
<rect x="1777" y="163" width="149" height="145" rx="18" fill="#242629"/>
<rect x="1938" y="163" width="149" height="145" rx="18" fill="#242629"/>
<path d="M2099 181C2099 171.059 2107.06 163 2117 163H2376C2385.94 163 2394 171.059 2394 181V290C2394 299.941 2385.94 308 2376 308H2117C2107.06 308 2099 299.941 2099 290V181Z" fill="#242629"/>
<rect x="6" y="320" width="220" height="145" rx="18" fill="#242629"/>
<rect x="238" y="320" width="149" height="145" rx="18" fill="#242629"/>
<rect x="399" y="320" width="149" height="145" rx="18" fill="#242629"/>
<rect x="560" y="320" width="149" height="145" rx="18" fill="#242629"/>
<rect x="721" y="320" width="149" height="145" rx="18" fill="#242629"/>
<rect x="882" y="320" width="149" height="145" rx="18" fill="#242629"/>
<rect x="1043" y="320" width="149" height="145" rx="18" fill="#242629"/>
<rect x="1204" y="320" width="149" height="145" rx="18" fill="#242629"/>
<rect x="1365" y="320" width="149" height="145" rx="18" fill="#242629"/>
<rect x="1526" y="320" width="149" height="145" rx="18" fill="#242629"/>
<rect x="1687" y="320" width="149" height="145" rx="18" fill="#242629"/>
<rect x="1848" y="320" width="149" height="145" rx="18" fill="#242629"/>
<rect x="2009" y="320" width="149" height="145" rx="18" fill="#242629"/>
<rect x="2170" y="320" width="224" height="145" rx="18" fill="#242629"/>
<rect x="6" y="477" width="262" height="145" rx="18" fill="#242629"/>
<rect x="280" y="477" width="149" height="145" rx="18" fill="#242629"/>
<rect x="441" y="477" width="149" height="145" rx="18" fill="#242629"/>
<rect x="602" y="477" width="149" height="145" rx="18" fill="#242629"/>
<rect x="763" y="477" width="149" height="145" rx="18" fill="#242629"/>
<rect x="924" y="477" width="149" height="145" rx="18" fill="#242629"/>
<rect x="1085" y="477" width="149" height="145" rx="18" fill="#242629"/>
<rect x="1246" y="477" width="149" height="145" rx="18" fill="#242629"/>
<rect x="1407" y="477" width="149" height="145" rx="18" fill="#242629"/>
<rect x="1568" y="477" width="149" height="145" rx="18" fill="#242629"/>
<rect x="1729" y="477" width="149" height="145" rx="18" fill="#242629"/>
<rect x="1890" y="477" width="149" height="145" rx="18" fill="#242629"/>
<rect x="2051" y="477" width="346" height="145" rx="18" fill="#242629"/>
<rect x="6" y="634" width="384" height="145" rx="18" fill="#242629"/>
<rect x="402" y="634" width="149" height="145" rx="18" fill="#242629"/>
<rect x="563" y="634" width="149" height="145" rx="18" fill="#242629"/>
<rect x="724" y="634" width="149" height="145" rx="18" fill="#242629"/>
<rect x="885" y="634" width="149" height="145" rx="18" fill="#242629"/>
<rect x="1046" y="634" width="149" height="145" rx="18" fill="#242629"/>
<rect x="1207" y="634" width="149" height="145" rx="18" fill="#242629"/>
<rect x="1368" y="634" width="149" height="145" rx="18" fill="#242629"/>
<rect x="1529" y="634" width="149" height="145" rx="18" fill="#242629"/>
<rect x="1690" y="634" width="149" height="145" rx="18" fill="#242629"/>
<rect x="1851" y="634" width="149" height="145" rx="18" fill="#242629"/>
<rect x="2011" y="634" width="386" height="145" rx="18" fill="#242629"/>
<rect x="6" y="791" width="267" height="145" rx="18" fill="#242629"/>
<rect x="285" y="791" width="191" height="145" rx="18" fill="#242629"/>
<rect x="488" y="791" width="191" height="145" rx="18" fill="#242629"/>
<rect x="691" y="791" width="840" height="145" rx="18" fill="#242629"/>
<rect x="1543" y="791" width="191" height="145" rx="18" fill="#242629"/>
<rect x="1746" y="791" width="153" height="145" rx="18" fill="#242629"/>
<rect x="1911" y="791" width="154" height="145" rx="18" fill="#242629"/>
<rect x="2077" y="791" width="154" height="70" rx="18" fill="#242629"/>
<rect x="2077" y="866" width="154" height="70" rx="18" fill="#242629"/>
<rect x="2243" y="791" width="154" height="145" rx="18" fill="#242629"/>
</svg>
