<svg width="2400" height="944" viewBox="0 0 2400 944" fill="none" xmlns="http://www.w3.org/2000/svg">
<rect width="2400" height="944" fill="#3C3C3C"/>
<rect x="6" y="6" width="220" height="145" rx="18" fill="#242629"/>
<rect x="238" y="6" width="149" height="145" rx="18" fill="#242629"/>
<rect x="399" y="6" width="149" height="145" rx="18" fill="#242629"/>
<rect x="560" y="6" width="149" height="145" rx="18" fill="#242629"/>
<rect x="721" y="6" width="149" height="145" rx="18" fill="#242629"/>
<rect x="882" y="6" width="149" height="145" rx="18" fill="#242629"/>
<rect x="1043" y="6" width="149" height="145" rx="18" fill="#242629"/>
<rect x="1204" y="6" width="149" height="145" rx="18" fill="#242629"/>
<rect x="1365" y="6" width="149" height="145" rx="18" fill="#242629"/>
<rect x="1526" y="6" width="149" height="145" rx="18" fill="#242629"/>
<rect x="1687" y="6" width="149" height="145" rx="18" fill="#242629"/>
<rect x="1848" y="6" width="149" height="145" rx="18" fill="#242629"/>
<rect x="2009" y="6" width="149" height="145" rx="18" fill="#242629"/>
<rect x="2170" y="6" width="224" height="145" rx="18" fill="#242629"/>
<rect x="6" y="163" width="149" height="145" rx="18" fill="#242629"/>
<rect x="167" y="163" width="149" height="145" rx="18" fill="#242629"/>
<rect x="328" y="163" width="149" height="145" rx="18" fill="#242629"/>
<rect x="489" y="163" width="149" height="145" rx="18" fill="#242629"/>
<rect x="650" y="163" width="149" height="145" rx="18" fill="#242629"/>
<rect x="811" y="163" width="149" height="145" rx="18" fill="#242629"/>
<rect x="972" y="163" width="149" height="145" rx="18" fill="#242629"/>
<rect x="1133" y="163" width="149" height="145" rx="18" fill="#242629"/>
<rect x="1294" y="163" width="149" height="145" rx="18" fill="#242629"/>
<rect x="1455" y="163" width="149" height="145" rx="18" fill="#242629"/>
<rect x="1616" y="163" width="149" height="145" rx="18" fill="#242629"/>
<rect x="1777" y="163" width="149" height="145" rx="18" fill="#242629"/>
<rect x="1938" y="163" width="149" height="145" rx="18" fill="#242629"/>
<path d="M2099 181C2099 171.059 2107.06 163 2117 163H2376C2385.94 163 2394 171.059 2394 181V290C2394 299.941 2385.94 308 2376 308H2117C2107.06 308 2099 299.941 2099 290V181Z" fill="#242629"/>
<rect x="6" y="320" width="250" height="145" rx="18" fill="#242629"/>
<rect x="268" y="320" width="149" height="145" rx="18" fill="#242629"/>
<rect x="429" y="320" width="149" height="145" rx="18" fill="#242629"/>
<rect x="590" y="320" width="149" height="145" rx="18" fill="#242629"/>
<rect x="751" y="320" width="149" height="145" rx="18" fill="#242629"/>
<rect x="912" y="320" width="149" height="145" rx="18" fill="#242629"/>
<rect x="1073" y="320" width="149" height="145" rx="18" fill="#242629"/>
<rect x="1234" y="320" width="149" height="145" rx="18" fill="#242629"/>
<rect x="1395" y="320" width="149" height="145" rx="18" fill="#242629"/>
<rect x="1556" y="320" width="149" height="145" rx="18" fill="#242629"/>
<rect x="1717" y="320" width="149" height="145" rx="18" fill="#242629"/>
<rect x="1878" y="320" width="149" height="145" rx="18" fill="#242629"/>
<rect x="2039" y="320" width="149" height="145" rx="18" fill="#242629"/>
<path d="M2376 320H2218C2208.06 320 2200 328.059 2200 338V447C2200 456.941 2208.06 465 2218 465H2224C2233.94 465 2242 473.059 2242 483V604C2242 613.941 2250.06 622 2260 622H2376C2385.94 622 2394 613.941 2394 604V338C2394 328.059 2385.94 320 2376 320Z" fill="#242629"/>
<rect x="6" y="477" width="291" height="145" rx="18" fill="#242629"/>
<rect x="310" y="477" width="149" height="145" rx="18" fill="#242629"/>
<rect x="471" y="477" width="149" height="145" rx="18" fill="#242629"/>
<rect x="632" y="477" width="149" height="145" rx="18" fill="#242629"/>
<rect x="793" y="477" width="149" height="145" rx="18" fill="#242629"/>
<rect x="954" y="477" width="149" height="145" rx="18" fill="#242629"/>
<rect x="1115" y="477" width="149" height="145" rx="18" fill="#242629"/>
<rect x="1276" y="477" width="149" height="145" rx="18" fill="#242629"/>
<rect x="1437" y="477" width="149" height="145" rx="18" fill="#242629"/>
<rect x="1598" y="477" width="149" height="145" rx="18" fill="#242629"/>
<rect x="1759" y="477" width="149" height="145" rx="18" fill="#242629"/>
<rect x="1920" y="477" width="149" height="145" rx="18" fill="#242629"/>
<rect x="2081" y="477" width="149" height="145" rx="18" fill="#242629"/>
<rect x="6" y="634" width="222" height="145" rx="18" fill="#242629"/>
<rect x="240" y="634" width="149" height="145" rx="18" fill="#242629"/>
<rect x="401" y="634" width="149" height="145" rx="18" fill="#242629"/>
<rect x="562" y="634" width="149" height="145" rx="18" fill="#242629"/>
<rect x="723" y="634" width="149" height="145" rx="18" fill="#242629"/>
<rect x="884" y="634" width="149" height="145" rx="18" fill="#242629"/>
<rect x="1045" y="634" width="149" height="145" rx="18" fill="#242629"/>
<rect x="1206" y="634" width="149" height="145" rx="18" fill="#242629"/>
<rect x="1367" y="634" width="149" height="145" rx="18" fill="#242629"/>
<rect x="1528" y="634" width="149" height="145" rx="18" fill="#242629"/>
<rect x="1689" y="634" width="149" height="145" rx="18" fill="#242629"/>
<rect x="1850" y="634" width="149" height="145" rx="18" fill="#242629"/>
<rect x="2011" y="634" width="386" height="145" rx="18" fill="#242629"/>
<rect x="6" y="791" width="267" height="145" rx="18" fill="#242629"/>
<rect x="285" y="791" width="191" height="145" rx="18" fill="#242629"/>
<rect x="488" y="791" width="191" height="145" rx="18" fill="#242629"/>
<rect x="691" y="791" width="840" height="145" rx="18" fill="#242629"/>
<rect x="1543" y="791" width="191" height="145" rx="18" fill="#242629"/>
<rect x="1746" y="791" width="153" height="145" rx="18" fill="#242629"/>
<rect x="1911" y="791" width="154" height="145" rx="18" fill="#242629"/>
<rect x="2077" y="791" width="154" height="70" rx="18" fill="#242629"/>
<rect x="2077" y="866" width="154" height="70" rx="18" fill="#242629"/>
<rect x="2243" y="791" width="154" height="145" rx="18" fill="#242629"/>
</svg>
