<svg width="2400" height="944" viewBox="0 0 2400 944" fill="none" xmlns="http://www.w3.org/2000/svg">
<rect width="2400" height="944" fill="#C2C2C2"/>
<rect x="6" y="6" width="220" height="145" rx="18" fill="#F4F4F4"/>
<rect x="238" y="6" width="149" height="145" rx="18" fill="#F4F4F4"/>
<rect x="399" y="6" width="149" height="145" rx="18" fill="#F4F4F4"/>
<rect x="560" y="6" width="149" height="145" rx="18" fill="#F4F4F4"/>
<rect x="721" y="6" width="149" height="145" rx="18" fill="#F4F4F4"/>
<rect x="882" y="6" width="149" height="145" rx="18" fill="#F4F4F4"/>
<rect x="1043" y="6" width="149" height="145" rx="18" fill="#F4F4F4"/>
<rect x="1204" y="6" width="149" height="145" rx="18" fill="#F4F4F4"/>
<rect x="1365" y="6" width="149" height="145" rx="18" fill="#F4F4F4"/>
<rect x="1526" y="6" width="149" height="145" rx="18" fill="#F4F4F4"/>
<rect x="1687" y="6" width="149" height="145" rx="18" fill="#F4F4F4"/>
<rect x="1848" y="6" width="149" height="145" rx="18" fill="#F4F4F4"/>
<rect x="2009" y="6" width="149" height="145" rx="18" fill="#F4F4F4"/>
<rect x="2170" y="6" width="224" height="145" rx="18" fill="#F4F4F4"/>
<rect x="6" y="163" width="194" height="145" rx="18" fill="#F4F4F4"/>
<rect x="212" y="163" width="149" height="145" rx="18" fill="#F4F4F4"/>
<rect x="373" y="163" width="149" height="145" rx="18" fill="#F4F4F4"/>
<rect x="534" y="163" width="149" height="145" rx="18" fill="#F4F4F4"/>
<rect x="695" y="163" width="149" height="145" rx="18" fill="#F4F4F4"/>
<rect x="856" y="163" width="149" height="145" rx="18" fill="#F4F4F4"/>
<rect x="1017" y="163" width="149" height="145" rx="18" fill="#F4F4F4"/>
<rect x="1178" y="163" width="149" height="145" rx="18" fill="#F4F4F4"/>
<rect x="1339" y="163" width="149" height="145" rx="18" fill="#F4F4F4"/>
<rect x="1500" y="163" width="149" height="145" rx="18" fill="#F4F4F4"/>
<rect x="1661" y="163" width="149" height="145" rx="18" fill="#F4F4F4"/>
<rect x="1822" y="163" width="149" height="145" rx="18" fill="#F4F4F4"/>
<rect x="1983" y="163" width="149" height="145" rx="18" fill="#F4F4F4"/>
<path d="M2144 181C2144 171.059 2152.06 163 2162 163H2376C2385.94 163 2394 171.059 2394 181V290C2394 299.941 2385.94 308 2376 308H2162C2152.06 308 2144 299.941 2144 290V181Z" fill="#F4F4F4"/>
<rect x="6" y="320" width="159" height="145" rx="18" fill="#F4F4F4"/>
<rect x="177" y="320" width="149" height="145" rx="18" fill="#F4F4F4"/>
<rect x="338" y="320" width="149" height="145" rx="18" fill="#F4F4F4"/>
<rect x="499" y="320" width="149" height="145" rx="18" fill="#F4F4F4"/>
<rect x="660" y="320" width="149" height="145" rx="18" fill="#F4F4F4"/>
<rect x="821" y="320" width="149" height="145" rx="18" fill="#F4F4F4"/>
<rect x="982" y="320" width="149" height="145" rx="18" fill="#F4F4F4"/>
<rect x="1143" y="320" width="149" height="145" rx="18" fill="#F4F4F4"/>
<rect x="1304" y="320" width="149" height="145" rx="18" fill="#F4F4F4"/>
<rect x="1465" y="320" width="149" height="145" rx="18" fill="#F4F4F4"/>
<rect x="1626" y="320" width="149" height="145" rx="18" fill="#F4F4F4"/>
<rect x="1787" y="320" width="149" height="145" rx="18" fill="#F4F4F4"/>
<rect x="1948" y="320" width="149" height="145" rx="18" fill="#F4F4F4"/>
<path d="M2376 320H2127C2117.06 320 2109 328.059 2109 338V447C2109 456.941 2117.06 465 2127 465H2136C2145.94 465 2154 473.059 2154 483V604C2154 613.941 2162.06 622 2172 622H2376C2385.94 622 2394 613.941 2394 604V338C2394 328.059 2385.94 320 2376 320Z" fill="#F4F4F4"/>
<rect x="6" y="477" width="204" height="145" rx="18" fill="#F4F4F4"/>
<rect x="222" y="477" width="149" height="145" rx="18" fill="#F4F4F4"/>
<rect x="383" y="477" width="149" height="145" rx="18" fill="#F4F4F4"/>
<rect x="544" y="477" width="149" height="145" rx="18" fill="#F4F4F4"/>
<rect x="705" y="477" width="149" height="145" rx="18" fill="#F4F4F4"/>
<rect x="866" y="477" width="149" height="145" rx="18" fill="#F4F4F4"/>
<rect x="1027" y="477" width="149" height="145" rx="18" fill="#F4F4F4"/>
<rect x="1188" y="477" width="149" height="145" rx="18" fill="#F4F4F4"/>
<rect x="1349" y="477" width="149" height="145" rx="18" fill="#F4F4F4"/>
<rect x="1510" y="477" width="149" height="145" rx="18" fill="#F4F4F4"/>
<rect x="1671" y="477" width="149" height="145" rx="18" fill="#F4F4F4"/>
<rect x="1832" y="477" width="149" height="145" rx="18" fill="#F4F4F4"/>
<rect x="1993" y="477" width="149" height="145" rx="18" fill="#F4F4F4"/>
<rect x="6" y="634" width="276" height="145" rx="18" fill="#F4F4F4"/>
<rect x="294" y="634" width="149" height="145" rx="18" fill="#F4F4F4"/>
<rect x="455" y="634" width="149" height="145" rx="18" fill="#F4F4F4"/>
<rect x="616" y="634" width="149" height="145" rx="18" fill="#F4F4F4"/>
<rect x="777" y="634" width="149" height="145" rx="18" fill="#F4F4F4"/>
<rect x="938" y="634" width="149" height="145" rx="18" fill="#F4F4F4"/>
<rect x="1099" y="634" width="149" height="145" rx="18" fill="#F4F4F4"/>
<rect x="1260" y="634" width="149" height="145" rx="18" fill="#F4F4F4"/>
<rect x="1421" y="634" width="149" height="145" rx="18" fill="#F4F4F4"/>
<rect x="1582" y="634" width="149" height="145" rx="18" fill="#F4F4F4"/>
<rect x="1743" y="634" width="149" height="145" rx="18" fill="#F4F4F4"/>
<rect x="1904" y="634" width="149" height="145" rx="18" fill="#F4F4F4"/>
<rect x="2065" y="634" width="332" height="145" rx="18" fill="#F4F4F4"/>
<rect x="6" y="791" width="190" height="145" rx="18" fill="#F4F4F4"/>
<rect x="208" y="791" width="190" height="145" rx="18" fill="#F4F4F4"/>
<rect x="410" y="791" width="190" height="145" rx="18" fill="#F4F4F4"/>
<rect x="612" y="791" width="190" height="145" rx="18" fill="#F4F4F4"/>
<rect x="814" y="791" width="696" height="145" rx="18" fill="#F4F4F4"/>
<rect x="1724" y="791" width="190" height="145" rx="18" fill="#F4F4F4"/>
<rect x="1522" y="791" width="190" height="145" rx="18" fill="#F4F4F4"/>
<rect x="1926" y="791" width="149" height="145" rx="18" fill="#F4F4F4"/>
<rect x="2087" y="791" width="149" height="70" rx="18" fill="#F4F4F4"/>
<rect x="2087" y="866" width="149" height="70" rx="18" fill="#F4F4F4"/>
<rect x="2248" y="791" width="149" height="145" rx="18" fill="#F4F4F4"/>
</svg>
