<svg width="1024" height="1024" viewBox="0 0 1024 1024" fill="none" xmlns="http://www.w3.org/2000/svg">
<path fill-rule="evenodd" clip-rule="evenodd" d="M68.2664 413.609V674.992C257.167 674.128 427.172 591.674 546.138 460.408C546.239 456.023 548.024 451.839 551.133 448.732C553.71 446.155 557.025 444.487 560.582 443.935C633.579 357.873 685.37 252.59 707.67 136.533H443.742C357.024 270.575 224.17 370.789 68.2664 413.609ZM341.334 443.733C336.852 443.733 332.413 444.616 328.272 446.331C324.131 448.046 320.368 450.561 317.198 453.73C314.029 456.9 311.515 460.663 309.799 464.804C308.084 468.945 307.2 473.384 307.2 477.866V546.133C307.2 555.186 310.797 563.868 317.198 570.269C323.6 576.67 332.282 580.266 341.334 580.266C350.387 580.266 359.069 576.67 365.47 570.269C371.871 563.868 375.468 555.186 375.468 546.133V477.866C375.468 473.384 374.585 468.945 372.869 464.804C371.154 460.663 368.64 456.9 365.47 453.73C362.301 450.561 358.538 448.046 354.397 446.331C350.255 444.616 345.817 443.733 341.334 443.733Z" fill="#FF9552"/>
<path fill-rule="evenodd" clip-rule="evenodd" d="M925.742 166.525C917.722 158.505 908.508 151.952 898.518 147.041C903.518 180.282 906.112 214.332 906.112 249C906.112 617.357 613.281 915.969 252.056 915.969C210.517 915.969 169.882 912.02 130.493 904.471L400.624 978.124C405.685 979.504 410.996 979.698 416.145 978.693C421.293 977.687 426.141 975.508 430.311 972.325C434.48 969.142 437.861 965.041 440.189 960.341C442.517 955.64 443.73 950.465 443.734 945.22V887.466H853.334C880.492 887.466 906.538 876.677 925.742 857.473C944.946 838.27 955.734 812.224 955.734 785.066V238.933C955.734 211.775 944.946 185.729 925.742 166.525Z" fill="#FC7032"/>
<path d="M82.269 876.78C91.3616 888.692 104.121 897.28 118.579 901.222L130.493 904.471C169.882 912.02 210.517 915.969 252.056 915.969C613.281 915.969 906.112 617.357 906.112 249C906.112 214.332 903.518 180.282 898.518 147.041C884.588 140.192 869.15 136.533 853.334 136.533H707.67C685.37 252.59 633.579 357.873 560.582 443.935C561.443 443.801 562.318 443.733 563.201 443.733H648.534V319.214C648.526 315.723 649.591 312.313 651.583 309.444C653.574 306.576 656.398 304.388 659.672 303.175C662.947 301.962 666.514 301.783 669.894 302.661C673.273 303.539 676.302 305.433 678.572 308.087L843.811 500.906C846.455 503.998 847.908 507.932 847.908 512C847.908 516.067 846.455 520.002 843.811 523.093L678.572 715.911C676.302 718.565 673.273 720.459 669.894 721.337C666.514 722.215 662.947 722.036 659.672 720.823C656.398 719.61 653.574 717.422 651.583 714.554C649.591 711.685 648.526 708.275 648.534 704.784V580.266H563.201C558.675 580.266 554.333 578.468 551.133 575.267C547.932 572.067 546.133 567.726 546.133 563.2V460.8C546.133 460.669 546.135 460.538 546.138 460.408C427.172 591.674 257.167 674.128 68.2664 674.992V835.31C68.2559 850.296 73.1764 864.868 82.269 876.78Z" fill="#FF8345"/>
<path d="M82.2898 147.227C73.1983 159.124 68.2709 173.681 68.2664 188.655V413.609C224.17 370.789 357.024 270.575 443.742 136.533H443.734V78.8483C443.741 73.5967 442.534 68.4145 440.211 63.7049C437.887 58.9953 434.509 54.8854 430.338 51.6949C426.166 48.5045 421.315 46.3196 416.161 45.3102C411.008 44.3009 405.691 44.4943 400.624 45.8755L118.579 122.812C104.133 126.75 91.3812 135.329 82.2898 147.227Z" fill="#FFA56A"/>
</svg>
