<svg width="1024" height="1024" viewBox="0 0 1024 1024" fill="none" xmlns="http://www.w3.org/2000/svg">
<path d="M201.573 120.268C151.192 84.4286 81.3564 120.422 81.3564 182.272V387.586C172.126 343.707 251.408 279.112 313.34 199.781L201.573 120.268Z" fill="#FFA56A"/>
<path d="M931.225 572.774C973.875 542.412 973.875 479.078 931.225 448.768L808.692 361.609C772.752 610.948 601.513 815.418 373.461 894.986C398.322 917.881 437.741 923.781 469.453 901.222L931.225 572.774Z" fill="#FC7032"/>
<path d="M349.184 192.563V225.28L313.34 199.781C251.408 279.112 172.126 343.707 81.3564 387.586V682.757C257.11 653.191 409.259 552.239 508.207 410.078L487.924 397.541L485.069 395.776C469.307 386.012 460.636 369.156 460.625 351.899C460.63 342.656 463.117 333.3 468.326 324.864C483.276 300.646 515.072 293.171 539.289 308.121L560.419 321.181C577.041 287.123 590.894 251.413 601.678 214.357L473.565 123.231L469.401 120.268C467.277 118.757 465.116 117.373 462.929 116.114C440.832 103.39 415.886 103.355 394.999 112.452C395.002 112.446 395.005 112.441 395.008 112.435C369.673 123.485 350.288 147.939 349.229 179.539C349.198 180.444 349.184 181.355 349.184 182.272V192.563Z" fill="#FF9552"/>
<path d="M81.3564 839.219C81.3564 893.337 134.826 927.66 181.944 911.385C188.675 909.06 195.276 905.702 201.573 901.222L349.235 796.211V839.219C349.235 840.185 349.252 841.145 349.286 842.099C350.053 863.761 359.442 882.076 373.461 894.986C601.513 815.418 772.752 610.948 808.692 361.609L601.678 214.357C590.894 251.413 577.041 287.123 560.419 321.181L561.408 321.792L561.424 321.755L750.797 438.835L750.956 438.933C751.014 438.97 751.073 439.007 751.132 439.043C752.183 439.703 753.202 440.395 754.188 441.117C759.684 445.143 764.164 450.126 767.539 455.68L767.563 455.593C777.467 471.673 778.133 492.638 767.539 509.798C763.983 515.562 759.326 520.568 753.833 524.529C750.172 527.171 746.187 529.313 741.984 530.909L741.99 530.893C738.191 532.326 734.241 533.325 730.223 533.848C725.311 534.475 720.326 534.391 715.421 533.592C714.163 533.387 712.915 533.136 711.679 532.839C706.49 531.585 701.411 529.498 696.627 526.541L508.207 410.078C409.259 552.239 257.11 653.191 81.3564 682.757V839.219Z" fill="#FF8345"/>
</svg>
