<svg width="1024" height="1024" viewBox="0 0 1024 1024" fill="none" xmlns="http://www.w3.org/2000/svg">
<path d="M341.227 138.717L440.73 235.259H353.571L291.299 177.557C279.795 166.218 280.94 148.654 293.937 136.979C308.485 126.275 329.654 127.057 341.227 138.717Z" fill="#FFA56A"/>
<path d="M399.672 441.747C399.704 434.665 403.467 428.121 409.569 424.597C412.577 422.864 415.973 421.959 419.426 421.971C422.878 421.982 426.268 422.909 429.265 424.662L583.199 515.22C662.53 444.12 724.854 353.76 763.146 251.305H435.595C335.048 351.465 202.977 418.808 56 436.371V674.169C87.0866 678.788 118.882 681.18 151.225 681.18C239.168 681.18 323.062 663.496 399.672 631.425V441.747Z" fill="#FF9552"/>
<path d="M733.453 136.666C746.475 148.415 747.672 165.897 736.233 177.266L675.108 235.922H586.581L685.497 138.298C691.096 132.662 699.3 129.324 708.316 129.023C717.308 128.717 726.366 131.474 733.453 136.666Z" fill="#FF9552"/>
<path d="M186 251.305C114.203 251.305 56 309.509 56 381.306V436.371C202.977 418.808 335.048 351.465 435.595 251.305H186Z" fill="#FFA56A"/>
<path d="M967.433 381.305C967.433 309.508 909.231 251.305 837.434 251.305H763.146C724.854 353.76 662.53 444.12 583.199 515.22L654.078 556.917C660.177 560.452 663.957 567.019 663.957 574.113C663.957 581.226 660.177 587.781 654.078 591.325L429.265 723.46C426.269 725.215 422.878 726.143 419.426 726.155C415.974 726.167 412.577 725.262 409.569 723.529C403.466 720.004 399.704 713.457 399.672 706.369V631.425C323.062 663.496 239.168 681.18 151.225 681.18C118.882 681.18 87.0866 678.788 56 674.169V764.812C56 836.609 114.203 894.812 186 894.812H518.32C734.634 832.002 905.22 658.497 967.433 438.18V381.305Z" fill="#FF8345"/>
<path d="M837.433 894.812C909.23 894.812 967.433 836.609 967.433 764.812V438.18C905.22 658.497 734.634 832.002 518.32 894.812H837.433Z" fill="#FC7032"/>
</svg>
