<svg width="1024" height="1024" viewBox="0 0 1024 1024" fill="none" xmlns="http://www.w3.org/2000/svg">
<path d="M681.574 231.783V188.979C681.574 146.48 648.441 116.238 611.429 113.344C584.215 186.803 544.658 254.075 495.34 312.522C515.475 301.829 539.938 305.876 555.603 321.518C558.344 324.263 560.814 327.364 562.944 330.803C577.843 354.919 570.368 386.509 546.304 401.408L335.872 531.61C327.475 536.781 318.157 539.29 308.941 539.29C298.557 539.29 288.323 536.138 279.702 530.182C279.435 529.998 279.171 529.811 278.907 529.621C273.442 525.681 268.807 520.703 265.267 514.97C261.115 508.248 258.7 500.946 257.898 493.587C257.914 493.581 257.93 493.574 257.946 493.568C257.837 492.577 257.757 491.584 257.706 490.592C200.425 515.709 138.919 532.708 74.5782 540.171C79.4235 554.597 88.7144 567.811 102.451 577.587L353.626 756.251C623.812 677.748 822.695 426.691 828.393 127.372L811.161 139.627L811.162 139.571L681.574 231.783Z" fill="#FF9552"/>
<path d="M948.122 188.979C948.122 127.437 878.643 91.5971 828.518 127.283L828.393 127.372C822.695 426.691 623.812 677.748 353.626 756.251L561.971 904.448C612.096 940.135 681.574 904.243 681.574 842.752V799.949L777.873 868.432C848.693 808.766 906.985 734.186 948.122 649.409V565.914V188.979Z" fill="#FF8345"/>
<path fill-rule="evenodd" clip-rule="evenodd" d="M74.5782 540.171C138.919 532.708 200.425 515.709 257.706 490.592C257.279 482.307 258.872 474.034 262.308 466.521C266.377 457.668 273.008 449.875 281.907 444.365L492.39 314.215C493.362 313.615 494.346 313.05 495.34 312.522C544.658 254.075 584.215 186.803 611.429 113.344C605.419 112.874 599.306 113.125 593.216 114.162C582.491 115.979 571.843 120.232 561.971 127.283L102.451 454.144C97.0337 457.995 92.3122 462.381 88.2848 467.165C70.9301 487.753 66.3613 515.705 74.5782 540.171Z" fill="#FFA56A"/>
<path d="M828.518 904.448C878.643 940.135 948.122 904.243 948.122 842.752V649.409C906.985 734.186 848.693 808.766 777.873 868.432L828.518 904.448Z" fill="#FC7032"/>
</svg>
