<svg width="1024" height="1024" viewBox="0 0 1024 1024" fill="none" xmlns="http://www.w3.org/2000/svg">
<path d="M230.4 224C248.192 224 277.846 212.608 297.088 198.272L356.822 153.728C375.851 139.52 410.24 128 433.92 128H590.08C613.632 128 647.979 139.392 667.179 153.728L726.912 198.272C745.984 212.48 780.502 224 793.6 224H887.467C939.179 224 981.334 264.021 981.334 313.6V806.4C981.334 856.064 939.179 896 887.467 896H136.534C84.4803 896 42.667 855.979 42.667 806.4V313.6C42.667 263.936 84.651 224 136.534 224H230.4V224ZM512 725.333C540.016 725.333 567.757 719.815 593.639 709.094C619.522 698.373 643.04 682.659 662.85 662.849C682.66 643.04 698.374 619.522 709.095 593.639C719.816 567.756 725.334 540.015 725.334 512C725.334 483.985 719.816 456.244 709.095 430.361C698.374 404.478 682.66 380.96 662.85 361.151C643.04 341.341 619.522 325.627 593.639 314.906C567.757 304.185 540.016 298.667 512 298.667C455.421 298.667 401.159 321.143 361.151 361.151C321.143 401.158 298.667 455.42 298.667 512C298.667 568.58 321.143 622.842 361.151 662.849C401.159 702.857 455.421 725.333 512 725.333V725.333ZM512 640C478.053 640 445.495 626.514 421.491 602.51C397.486 578.505 384 545.948 384 512C384 478.052 397.486 445.495 421.491 421.49C445.495 397.486 478.053 384 512 384C545.948 384 578.505 397.486 602.51 421.49C626.515 445.495 640 478.052 640 512C640 545.948 626.515 578.505 602.51 602.51C578.505 626.514 545.948 640 512 640Z" fill="black"/>
</svg>
