<svg width="1024" height="1024" viewBox="0 0 1024 1024" fill="none" xmlns="http://www.w3.org/2000/svg">
<path d="M511.744 85.3333C612.565 85.3333 702.976 141.653 744.405 228.139C757.547 255.531 766.165 295.125 767.744 329.941L768 341.333C801.948 341.333 834.505 354.819 858.51 378.824C882.514 402.828 896 435.386 896 469.333V810.667C896 844.614 882.514 877.172 858.51 901.176C834.505 925.181 801.948 938.667 768 938.667H256C222.052 938.667 189.495 925.181 165.49 901.176C141.486 877.172 128 844.614 128 810.667V469.333C128 435.386 141.486 402.828 165.49 378.824C189.495 354.819 222.052 341.333 256 341.333V329.813C256 194.261 371.029 85.3333 511.744 85.3333ZM512 533.333C501.55 533.335 491.463 537.171 483.653 544.116C475.844 551.06 470.855 560.629 469.632 571.008L469.333 576V704L469.632 708.992C470.865 719.362 475.859 728.92 483.668 735.854C491.476 742.789 501.557 746.619 512 746.619C522.443 746.619 532.524 742.789 540.332 735.854C548.141 728.92 553.134 719.362 554.368 708.992L554.667 704V576L554.368 571.008C553.145 560.629 548.156 551.06 540.347 544.116C532.537 537.171 522.45 533.335 512 533.333ZM511.744 170.667C420.096 170.667 346.069 238.08 341.547 321.707L341.333 329.813V341.333H682.667C682.667 316.117 676.139 283.093 667.435 264.96C640.299 208.341 579.883 170.667 511.744 170.667Z" fill="black"/>
</svg>
