<svg width="1024" height="1024" viewBox="0 0 1024 1024" fill="none" xmlns="http://www.w3.org/2000/svg">
<path d="M922.069 477.934L472.652 151.089C466.186 146.384 458.544 143.558 450.572 142.927C442.6 142.295 434.608 143.881 427.481 147.51C420.355 151.139 414.371 156.668 410.192 163.487C406.014 170.306 403.803 178.148 403.805 186.145V328.666L159.636 151.089C153.168 146.392 145.527 143.574 137.558 142.946C129.588 142.318 121.601 143.906 114.477 147.533C107.353 151.161 101.371 156.686 97.1906 163.5C93.0103 170.314 90.7949 178.151 90.7891 186.145V839.827C90.7883 847.824 92.9996 855.665 97.1782 862.484C101.357 869.302 107.34 874.831 114.466 878.46C121.592 882.09 129.583 883.677 137.555 883.047C145.527 882.417 153.169 879.594 159.636 874.89L403.805 697.329V839.827C403.81 847.822 406.024 855.66 410.204 862.475C414.384 869.29 420.366 874.817 427.49 878.445C434.614 882.073 442.602 883.661 450.572 883.034C458.542 882.407 466.184 879.588 472.652 874.89L922.069 548.053C927.601 544.032 932.102 538.76 935.206 532.666C938.31 526.573 939.928 519.832 939.928 512.993C939.928 506.155 938.31 499.414 935.206 493.321C932.102 487.227 927.601 481.955 922.069 477.934Z" fill="black"/>
</svg>
