<svg width="1024" height="1024" viewBox="0 0 1024 1024" fill="none" xmlns="http://www.w3.org/2000/svg">
<path d="M159.637 151.089L609.054 477.934C614.586 481.955 619.087 487.227 622.191 493.321C625.295 499.414 626.913 506.155 626.913 512.993C626.913 519.832 625.295 526.573 622.191 532.666C619.087 538.76 614.586 544.032 609.054 548.053L159.637 874.89C153.168 879.588 145.527 882.407 137.557 883.034C129.587 883.661 121.599 882.073 114.475 878.445C107.351 874.817 101.368 869.29 97.1887 862.475C93.009 855.66 90.7945 847.822 90.79 839.827V186.145C90.788 178.148 92.9986 170.306 97.1772 163.487C101.356 156.668 107.34 151.139 114.466 147.51C121.593 143.881 129.584 142.295 137.557 142.927C145.529 143.558 153.171 146.384 159.637 151.089Z" fill="black"/>
<path d="M872.676 129.968C865.274 137.369 861.115 147.406 861.114 157.872V862.97C861.115 873.437 865.274 883.474 872.676 890.874C880.077 898.275 890.115 902.432 900.582 902.432C911.048 902.432 921.086 898.275 928.488 890.874C935.889 883.474 940.048 873.437 940.05 862.97V157.872C940.048 147.406 935.889 137.369 928.488 129.968C921.086 122.568 911.048 118.411 900.582 118.411C890.115 118.411 880.077 122.568 872.676 129.968Z" fill="black"/>
<path d="M679.676 129.968C672.274 137.369 668.115 147.406 668.114 157.872V862.97C668.115 873.437 672.274 883.474 679.676 890.874C687.077 898.275 697.115 902.432 707.582 902.432C718.048 902.432 728.086 898.275 735.488 890.874C742.889 883.474 747.048 873.437 747.05 862.97V157.872C747.048 147.406 742.889 137.369 735.488 129.968C728.086 122.568 718.048 118.411 707.582 118.411C697.115 118.411 687.077 122.568 679.676 129.968Z" fill="black"/>
</svg>
