<svg width="1024" height="1024" viewBox="0 0 1024 1024" fill="none" xmlns="http://www.w3.org/2000/svg">
<path d="M101.931 477.934L551.348 151.089C557.814 146.384 565.456 143.558 573.428 142.927C581.4 142.295 589.392 143.881 596.519 147.51C603.645 151.139 609.629 156.668 613.808 163.487C617.986 170.306 620.197 178.148 620.195 186.145V328.666L864.364 151.089C870.832 146.392 878.473 143.574 886.442 142.946C894.412 142.318 902.399 143.906 909.523 147.533C916.647 151.161 922.629 156.686 926.809 163.5C930.99 170.314 933.205 178.151 933.211 186.145V839.827C933.212 847.824 931 855.665 926.822 862.484C922.643 869.302 916.66 874.831 909.534 878.46C902.408 882.09 894.417 883.677 886.445 883.047C878.473 882.417 870.831 879.594 864.364 874.89L620.195 697.329V839.827C620.19 847.822 617.976 855.66 613.796 862.475C609.616 869.29 603.634 874.817 596.51 878.445C589.386 882.073 581.398 883.661 573.428 883.034C565.458 882.407 557.816 879.588 551.348 874.89L101.931 548.053C96.3993 544.032 91.8978 538.76 88.7939 532.666C85.6901 526.573 84.0721 519.832 84.0721 512.993C84.0721 506.155 85.6901 499.414 88.7939 493.321C91.8978 487.227 96.3993 481.955 101.931 477.934Z" fill="black"/>
</svg>
