<svg width="1024" height="1024" viewBox="0 0 1024 1024" fill="none" xmlns="http://www.w3.org/2000/svg">
<path d="M469.333 106.667V917.333C469.334 921.553 468.083 925.678 465.739 929.187C463.395 932.696 460.063 935.431 456.164 937.046C452.266 938.661 447.976 939.083 443.837 938.26C439.698 937.437 435.897 935.404 432.913 932.42L225.833 725.333H53.3333C39.1933 725.317 25.637 719.693 15.6385 709.695C5.64001 699.696 0.0158807 686.14 0 672L0 352C0.0158807 337.86 5.64001 324.304 15.6385 314.305C25.637 304.307 39.1933 298.682 53.3333 298.667H225.833L432.913 91.58C435.897 88.5957 439.698 86.5634 443.837 85.7399C447.976 84.9165 452.266 85.339 456.164 86.9539C460.063 88.5689 463.395 91.3038 465.739 94.8127C468.083 98.3215 469.334 102.447 469.333 106.667V106.667ZM646.087 406.393C642.551 402.043 637.446 399.259 631.874 398.643C626.303 398.028 620.713 399.629 616.313 403.103C611.913 406.576 609.057 411.641 608.362 417.203C607.667 422.766 609.19 428.378 612.6 432.827C630.471 455.347 640.198 483.251 640.198 512C640.198 540.749 630.471 568.653 612.6 591.173C609.095 595.615 607.497 601.267 608.159 606.886C608.821 612.505 611.689 617.631 616.13 621.137C620.571 624.642 626.224 626.239 631.843 625.577C637.462 624.915 642.588 622.048 646.093 617.607C669.789 587.505 682.673 550.309 682.673 512C682.673 473.691 669.789 436.495 646.093 406.393H646.087Z" fill="black"/>
</svg>
