<svg width="1024" height="1024" viewBox="0 0 1024 1024" fill="none" xmlns="http://www.w3.org/2000/svg">
<g clip-path="url(#clip0_103_22)">
<path d="M0.00243523 672V352C0.018316 337.86 5.64245 324.304 15.6409 314.305C25.6394 304.307 39.1958 298.682 53.3358 298.667H225.836L432.916 91.58C435.899 88.5957 439.701 86.5634 443.84 85.7399C447.978 84.9165 452.268 85.339 456.167 86.9539C460.065 88.5689 463.397 91.3038 465.742 94.8127C468.086 98.3215 469.336 102.447 469.336 106.667V296.08L41.4358 724C29.6692 721.291 19.1675 714.675 11.6432 705.232C4.11876 695.788 0.015505 684.074 0.00243523 672V672ZM633.756 219.58C631.775 217.598 629.423 216.027 626.834 214.954C624.246 213.882 621.471 213.33 618.669 213.33C615.867 213.33 613.093 213.882 610.504 214.954C607.915 216.027 605.564 217.598 603.582 219.58L6.2491 816.913C2.24787 820.915 9.37682e-08 826.341 0 832C-9.37682e-08 837.659 2.24787 843.085 6.2491 847.087C10.2503 851.088 15.6772 853.336 21.3358 853.336C26.9944 853.336 32.4212 851.088 36.4224 847.087L158.169 725.333H225.836L432.916 932.42C435.899 935.404 439.701 937.437 443.84 938.26C447.978 939.083 452.268 938.661 456.167 937.046C460.065 935.431 463.397 932.696 465.742 929.187C468.086 925.678 469.336 921.553 469.336 917.333V414.167L633.756 249.753C635.737 247.772 637.309 245.42 638.382 242.832C639.454 240.243 640.006 237.469 640.006 234.667C640.006 231.865 639.454 229.09 638.382 226.502C637.309 223.913 635.737 221.561 633.756 219.58V219.58Z" fill="black"/>
</g>
<defs>
<clipPath id="clip0_103_22">
<rect width="1024" height="1024" fill="white"/>
</clipPath>
</defs>
</svg>
