<svg width="1024" height="1024" viewBox="0 0 1024 1024" fill="none" xmlns="http://www.w3.org/2000/svg">
<path d="M469.333 106.667V917.333C469.334 921.553 468.083 925.678 465.739 929.187C463.395 932.696 460.063 935.431 456.164 937.046C452.266 938.661 447.976 939.083 443.837 938.26C439.698 937.437 435.897 935.404 432.913 932.42L225.833 725.333H53.3333C39.1933 725.317 25.637 719.693 15.6385 709.695C5.64001 699.696 0.0158807 686.14 0 672L0 352C0.0158807 337.86 5.64001 324.304 15.6385 314.305C25.637 304.307 39.1933 298.682 53.3333 298.667H225.833L432.913 91.58C435.897 88.5957 439.698 86.5634 443.837 85.7399C447.976 84.9165 452.266 85.339 456.164 86.9539C460.063 88.5689 463.395 91.3038 465.739 94.8127C468.083 98.3215 469.334 102.447 469.333 106.667V106.667ZM616.127 402.867C611.687 406.372 608.821 411.498 608.159 417.116C607.498 422.735 609.095 428.386 612.6 432.827C630.471 455.347 640.198 483.251 640.198 512C640.198 540.749 630.471 568.653 612.6 591.173C609.095 595.615 607.497 601.267 608.159 606.886C608.821 612.505 611.689 617.631 616.13 621.137C620.571 624.642 626.224 626.239 631.843 625.577C637.462 624.915 642.588 622.048 646.093 617.607C669.789 587.505 682.673 550.309 682.673 512C682.673 473.691 669.789 436.495 646.093 406.393C644.357 404.194 642.205 402.358 639.76 400.99C637.314 399.623 634.623 398.75 631.841 398.423C629.058 398.095 626.238 398.319 623.542 399.082C620.845 399.844 618.326 401.13 616.127 402.867V402.867ZM853.333 512C853.382 467.17 844.573 422.772 827.411 381.356C810.25 339.941 785.076 302.324 753.333 270.667C746.279 263.615 738.923 256.871 731.287 250.453C729.143 248.642 726.663 247.272 723.989 246.42C721.314 245.569 718.498 245.254 715.702 245.493C712.906 245.732 710.184 246.52 707.693 247.813C705.202 249.105 702.99 250.877 701.185 253.026C699.38 255.174 698.016 257.658 697.172 260.335C696.328 263.011 696.021 265.828 696.268 268.624C696.514 271.419 697.31 274.139 698.609 276.626C699.909 279.114 701.686 281.321 703.84 283.12C710.507 288.707 716.987 294.673 723.173 300.847C779.6 357.22 810.667 432.22 810.667 512C810.667 591.78 779.6 666.78 723.187 723.187C717.013 729.36 710.52 735.327 703.853 740.913C701.7 742.713 699.922 744.919 698.623 747.407C697.323 749.894 696.528 752.614 696.281 755.41C696.034 758.205 696.342 761.022 697.186 763.699C698.029 766.375 699.393 768.859 701.198 771.008C703.004 773.156 705.215 774.928 707.706 776.22C710.198 777.513 712.919 778.301 715.715 778.54C718.512 778.779 721.328 778.464 724.002 777.613C726.676 776.762 729.156 775.391 731.3 773.58C738.936 767.163 746.292 760.418 753.347 753.367C785.089 721.709 810.264 684.093 827.425 642.677C844.586 601.262 853.395 556.863 853.347 512.033L853.333 512ZM986.507 319.333C960.796 255.879 922.543 198.267 874.04 149.947C856.103 132.01 836.874 115.414 816.507 100.293C811.962 96.9224 806.264 95.495 800.667 96.3252C795.069 97.1553 790.031 100.175 786.66 104.72C783.289 109.265 781.862 114.963 782.692 120.56C783.522 126.157 786.542 131.196 791.087 134.567C809.774 148.436 827.415 163.661 843.867 180.12C1026.86 363.113 1026.86 660.86 843.867 843.853C827.413 860.311 809.772 875.536 791.087 889.407C788.836 891.075 786.937 893.171 785.496 895.574C784.055 897.977 783.102 900.64 782.691 903.411C781.86 909.007 783.287 914.705 786.657 919.25C790.027 923.795 795.064 926.815 800.661 927.646C806.258 928.476 811.955 927.05 816.5 923.68C836.868 908.557 856.099 891.962 874.04 874.027C945.173 802.827 993.771 712.261 1013.77 613.624C1033.77 514.986 1024.29 412.644 986.507 319.36V319.333Z" fill="black"/>
</svg>
