<?xml version="1.0" standalone="no"?><!DOCTYPE svg PUBLIC "-//W3C//DTD SVG 1.1//EN" "http://www.w3.org/Graphics/SVG/1.1/DTD/svg11.dtd"><svg class="icon" width="1024px" height="1024.00px" viewBox="0 0 1024 1024" version="1.1" xmlns="http://www.w3.org/2000/svg"><path fill="#000000" d="M296.896 774.4064 413.568 774.4064 413.568 963.7248 296.896 963.7248 296.896 774.4064ZM940.888186 0.038112 22.875417 0.038112C10.7259 0.038112 0.876844 9.887167 0.876844 22.036684L0.876844 816.858112 147.983078 962.049126 215.163148 962.049126 215.163148 961.924749 215.163148 929.236186 215.163148 681.556877 657.644186 681.556877 657.644186 961.924749 656.954048 961.924749 656.954048 962.049126 940.888186 962.049126C953.037709 962.049126 962.886758 952.200077 962.886758 940.050554L962.886758 22.036684C962.887859 9.887167 953.038803 0.038112 940.888186 0.038112L940.888186 0.038112ZM809.340339 484.168505 154.424369 484.168505 154.424369 52.694456 809.340339 52.694456 809.340339 484.168505 809.340339 484.168505ZM296.896 961.9264 413.568 961.9264 413.568 968.3264 296.896 968.3264Z" /></svg>